<svg width="32" height="32" viewBox="0 0 32 32" fill="none" xmlns="http://www.w3.org/2000/svg">
<path d="M0 16C0 24.8366 7.16344 32 16 32C24.8366 32 32 24.8366 32 16C32 7.16344 24.8366 0 16 0C7.16344 0 0 7.16344 0 16Z" fill="#0078D7"/>
<path d="M16.0004 20.8C13.3004 20.8 12.1004 19.4 12.1004 18.4C12.1004 18.2 12.2004 17.9 12.4004 17.8C12.6004 17.6 12.8004 17.6 13.0004 17.6C14.1004 17.6 13.8004 19.3 16.0004 19.3C17.1004 19.3 17.7004 18.6 17.7004 18C17.7004 17.6 17.5004 17.2 16.8004 17L14.4004 16.4C12.5004 15.9 12.2004 14.8 12.2004 13.9C12.2004 11.8 14.1004 11.1 15.9004 11.1C17.5004 11.1 19.5004 12 19.5004 13.2C19.5004 13.7 19.1004 14 18.5004 14C17.5004 14 17.7004 12.6 15.7004 12.6C14.7004 12.6 14.2004 13.1 14.2004 13.7C14.2004 14.3 15.0004 14.6 15.6004 14.7L17.4004 15.1C19.3004 15.5 19.8004 16.7 19.8004 17.7C19.8004 19.6 18.5004 20.8 16.0004 20.8ZM23.4004 17.3C23.5004 16.9 23.5004 16.4 23.5004 16C23.5004 13.8 22.5004 11.7 20.8004 10.2C19.1004 8.7 16.8004 8.2 14.6004 8.5C14.0004 8.2 13.2004 8 12.4004 8C10.8004 8 9.30039 8.9 8.50039 10.3C7.70039 11.7 7.70039 13.4 8.50039 14.8C8.10039 17.2 8.80037 19.7 10.6004 21.5C12.3004 23.2 14.8004 24 17.2004 23.6C17.9004 24 18.6004 24.2 19.4004 24.2C21.0004 24.2 22.5004 23.3 23.3004 21.9C24.1004 20.4 24.2004 18.7 23.4004 17.3Z" fill="white"/>
</svg>
