<svg width="32" height="32" viewBox="0 0 32 32" fill="none" xmlns="http://www.w3.org/2000/svg">
<path d="M0 16C0 24.8366 7.16344 32 16 32C24.8366 32 32 24.8366 32 16C32 7.16344 24.8366 0 16 0C7.16344 0 0 7.16344 0 16Z" fill="#FB5C56"/>
<mask id="mask0_103_4680" style="mask-type:alpha" maskUnits="userSpaceOnUse" x="8" y="8" width="16" height="16">
<rect x="8" y="8" width="16" height="16" fill="#D9D9D9"/>
</mask>
<g mask="url(#mask0_103_4680)">
<path d="M10.6663 21.3307C10.2997 21.3307 9.98579 21.2002 9.72467 20.9391C9.46356 20.678 9.33301 20.3641 9.33301 19.9974V11.9974C9.33301 11.6307 9.46356 11.3168 9.72467 11.0557C9.98579 10.7946 10.2997 10.6641 10.6663 10.6641H21.333C21.6997 10.6641 22.0136 10.7946 22.2747 11.0557C22.5358 11.3168 22.6663 11.6307 22.6663 11.9974V19.9974C22.6663 20.3641 22.5358 20.678 22.2747 20.9391C22.0136 21.2002 21.6997 21.3307 21.333 21.3307H10.6663ZM15.9997 16.6641L21.333 13.3307V11.9974L15.9997 15.3307L10.6663 11.9974V13.3307L15.9997 16.6641Z" fill="white"/>
</g>
</svg>
