<svg width="233" height="40" viewBox="0 0 233 40" fill="none" xmlns="http://www.w3.org/2000/svg">
<path d="M0.913086 14.4C0.913086 8.40043 0.913086 5.40064 2.44095 3.29772C2.93439 2.61856 3.53165 2.0213 4.2108 1.52786C6.31373 0 9.31351 0 15.3131 0H208.849C213.229 0 215.418 0 217.196 0.958062C217.777 1.27128 218.317 1.65521 218.803 2.10108C220.292 3.4649 221.012 5.53304 222.45 9.6693L226.346 20.8693C229.02 28.5561 230.356 32.3995 229.027 35.3166C228.605 36.2442 228.009 37.0826 227.272 37.7865C224.953 40 220.884 40 212.745 40H15.3131C9.31351 40 6.31373 40 4.2108 38.4721C3.53165 37.9787 2.93439 37.3814 2.44095 36.7023C0.913086 34.5994 0.913086 31.5996 0.913086 25.6V14.4Z" fill="white"/>
<path d="M16.9131 14.712H20.9691L21.7851 19.632V28.368H17.7771V19.2L16.9131 14.712ZM28.4331 14.568V18.024C28.0171 17.928 27.6011 17.856 27.1851 17.808C26.7691 17.76 26.3771 17.736 26.0091 17.736C25.2091 17.736 24.4891 17.904 23.8491 18.24C23.2091 18.576 22.7051 19.096 22.3371 19.8C21.9691 20.504 21.7851 21.392 21.7851 22.464L20.9451 21.456C21.0411 20.48 21.2171 19.568 21.4731 18.72C21.7291 17.856 22.0811 17.104 22.5291 16.464C22.9931 15.808 23.5611 15.296 24.2331 14.928C24.9051 14.544 25.7051 14.352 26.6331 14.352C26.9371 14.352 27.2411 14.376 27.5451 14.424C27.8651 14.456 28.1611 14.504 28.4331 14.568Z" fill="#002D62"/>
<path d="M37.5698 28.728C35.9538 28.728 34.5058 28.432 33.2258 27.84C31.9618 27.232 30.9618 26.384 30.2258 25.296C29.5058 24.208 29.1458 22.944 29.1458 21.504C29.1458 20.08 29.4898 18.832 30.1778 17.76C30.8818 16.688 31.8418 15.856 33.0578 15.264C34.2738 14.656 35.6578 14.352 37.2098 14.352C38.7938 14.352 40.1538 14.704 41.2898 15.408C42.4258 16.096 43.2978 17.072 43.9058 18.336C44.5298 19.6 44.8418 21.088 44.8418 22.8H32.3618V20.136H42.6818L41.1218 21.096C41.0578 20.296 40.8578 19.616 40.5218 19.056C40.2018 18.496 39.7618 18.064 39.2018 17.76C38.6418 17.456 37.9858 17.304 37.2338 17.304C36.4178 17.304 35.7058 17.472 35.0978 17.808C34.5058 18.128 34.0418 18.584 33.7058 19.176C33.3858 19.752 33.2258 20.432 33.2258 21.216C33.2258 22.16 33.4338 22.968 33.8498 23.64C34.2658 24.312 34.8738 24.824 35.6738 25.176C36.4738 25.528 37.4418 25.704 38.5778 25.704C39.6018 25.704 40.6338 25.56 41.6738 25.272C42.7138 24.968 43.6498 24.544 44.4818 24V26.688C43.5858 27.328 42.5378 27.832 41.3378 28.2C40.1538 28.552 38.8978 28.728 37.5698 28.728Z" fill="#002D62"/>
<path d="M62.8581 22.8C62.6981 23.968 62.2421 25 61.4901 25.896C60.7541 26.792 59.8021 27.488 58.6341 27.984C57.4661 28.48 56.1621 28.728 54.7221 28.728C53.0901 28.728 51.6501 28.432 50.4021 27.84C49.1701 27.232 48.2021 26.384 47.4981 25.296C46.8101 24.208 46.4661 22.96 46.4661 21.552C46.4661 20.128 46.8101 18.88 47.4981 17.808C48.2021 16.72 49.1701 15.872 50.4021 15.264C51.6501 14.656 53.0901 14.352 54.7221 14.352C56.1621 14.352 57.4661 14.608 58.6341 15.12C59.8021 15.616 60.7541 16.312 61.4901 17.208C62.2421 18.088 62.6981 19.12 62.8581 20.304H58.8501C58.6421 19.376 58.1621 18.664 57.4101 18.168C56.6741 17.656 55.7781 17.4 54.7221 17.4C53.8741 17.4 53.1301 17.568 52.4901 17.904C51.8661 18.224 51.3861 18.696 51.0501 19.32C50.7141 19.928 50.5461 20.672 50.5461 21.552C50.5461 22.416 50.7141 23.16 51.0501 23.784C51.3861 24.392 51.8661 24.864 52.4901 25.2C53.1301 25.52 53.8741 25.68 54.7221 25.68C55.7941 25.68 56.6981 25.416 57.4341 24.888C58.1861 24.36 58.6581 23.664 58.8501 22.8H62.8581Z" fill="#002D62"/>
<path d="M64.3506 14.712H68.4066L69.2226 19.632V28.368H65.2146V19.2L64.3506 14.712ZM75.8706 14.568V18.024C75.4546 17.928 75.0386 17.856 74.6226 17.808C74.2066 17.76 73.8146 17.736 73.4466 17.736C72.6466 17.736 71.9266 17.904 71.2866 18.24C70.6466 18.576 70.1426 19.096 69.7746 19.8C69.4066 20.504 69.2226 21.392 69.2226 22.464L68.3826 21.456C68.4786 20.48 68.6546 19.568 68.9106 18.72C69.1666 17.856 69.5186 17.104 69.9666 16.464C70.4306 15.808 70.9986 15.296 71.6706 14.928C72.3426 14.544 73.1426 14.352 74.0706 14.352C74.3746 14.352 74.6786 14.376 74.9826 14.424C75.3026 14.456 75.5986 14.504 75.8706 14.568Z" fill="#002D62"/>
<path d="M85.0073 28.728C83.3913 28.728 81.9433 28.432 80.6633 27.84C79.3993 27.232 78.3993 26.384 77.6633 25.296C76.9433 24.208 76.5833 22.944 76.5833 21.504C76.5833 20.08 76.9273 18.832 77.6153 17.76C78.3193 16.688 79.2793 15.856 80.4953 15.264C81.7113 14.656 83.0953 14.352 84.6473 14.352C86.2313 14.352 87.5913 14.704 88.7273 15.408C89.8633 16.096 90.7353 17.072 91.3433 18.336C91.9673 19.6 92.2793 21.088 92.2793 22.8H79.7993V20.136H90.1193L88.5593 21.096C88.4953 20.296 88.2953 19.616 87.9593 19.056C87.6393 18.496 87.1993 18.064 86.6393 17.76C86.0793 17.456 85.4233 17.304 84.6713 17.304C83.8553 17.304 83.1433 17.472 82.5353 17.808C81.9433 18.128 81.4793 18.584 81.1433 19.176C80.8233 19.752 80.6633 20.432 80.6633 21.216C80.6633 22.16 80.8713 22.968 81.2873 23.64C81.7033 24.312 82.3113 24.824 83.1113 25.176C83.9113 25.528 84.8793 25.704 86.0153 25.704C87.0393 25.704 88.0713 25.56 89.1113 25.272C90.1513 24.968 91.0873 24.544 91.9193 24V26.688C91.0233 27.328 89.9753 27.832 88.7753 28.2C87.5913 28.552 86.3353 28.728 85.0073 28.728Z" fill="#002D62"/>
<path d="M107.128 28.368L106.552 23.376L107.2 21.552L106.552 19.752L107.128 14.712H111.28L110.488 21.552L111.28 28.368H107.128ZM108.184 21.552C107.928 22.992 107.456 24.256 106.768 25.344C106.096 26.416 105.24 27.248 104.2 27.84C103.176 28.432 102.024 28.728 100.744 28.728C99.4156 28.728 98.2396 28.432 97.2156 27.84C96.1916 27.232 95.3916 26.392 94.8156 25.32C94.2556 24.232 93.9756 22.976 93.9756 21.552C93.9756 20.112 94.2556 18.856 94.8156 17.784C95.3916 16.696 96.1916 15.856 97.2156 15.264C98.2396 14.656 99.4156 14.352 100.744 14.352C102.024 14.352 103.176 14.648 104.2 15.24C105.24 15.832 106.104 16.672 106.792 17.76C107.48 18.832 107.944 20.096 108.184 21.552ZM98.0316 21.552C98.0316 22.352 98.1916 23.056 98.5116 23.664C98.8476 24.272 99.3036 24.752 99.8796 25.104C100.456 25.44 101.12 25.608 101.872 25.608C102.624 25.608 103.328 25.44 103.984 25.104C104.656 24.752 105.248 24.272 105.76 23.664C106.272 23.056 106.672 22.352 106.96 21.552C106.672 20.752 106.272 20.048 105.76 19.44C105.248 18.816 104.656 18.336 103.984 18C103.328 17.648 102.624 17.472 101.872 17.472C101.12 17.472 100.456 17.648 99.8796 18C99.3036 18.336 98.8476 18.816 98.5116 19.44C98.1916 20.048 98.0316 20.752 98.0316 21.552Z" fill="#002D62"/>
<path d="M112.568 17.736V15.96L115.424 15.024L117.128 11.112H119.432V14.712H125.48V17.736H119.432V22.704C119.432 23.76 119.648 24.504 120.08 24.936C120.528 25.352 121.296 25.56 122.384 25.56C123.072 25.56 123.68 25.496 124.208 25.368C124.736 25.24 125.24 25.056 125.72 24.816V27.936C125.256 28.128 124.64 28.304 123.872 28.464C123.104 28.64 122.312 28.728 121.496 28.728C120.072 28.728 118.912 28.504 118.016 28.056C117.136 27.592 116.48 26.952 116.048 26.136C115.632 25.32 115.424 24.368 115.424 23.28V17.736H112.568Z" fill="#002D62"/>
<path d="M135.237 28.728C133.541 28.728 132.053 28.432 130.773 27.84C129.493 27.232 128.493 26.392 127.773 25.32C127.053 24.232 126.693 22.976 126.693 21.552C126.693 20.112 127.053 18.856 127.773 17.784C128.493 16.696 129.493 15.856 130.773 15.264C132.053 14.656 133.541 14.352 135.237 14.352C136.933 14.352 138.421 14.656 139.701 15.264C140.981 15.856 141.973 16.696 142.677 17.784C143.397 18.856 143.757 20.112 143.757 21.552C143.757 22.976 143.397 24.232 142.677 25.32C141.973 26.392 140.981 27.232 139.701 27.84C138.421 28.432 136.933 28.728 135.237 28.728ZM135.237 25.68C136.165 25.68 136.957 25.512 137.613 25.176C138.285 24.84 138.797 24.368 139.149 23.76C139.517 23.136 139.701 22.4 139.701 21.552C139.701 20.688 139.517 19.952 139.149 19.344C138.797 18.72 138.285 18.24 137.613 17.904C136.957 17.568 136.165 17.4 135.237 17.4C134.325 17.4 133.533 17.568 132.861 17.904C132.189 18.24 131.669 18.72 131.301 19.344C130.949 19.952 130.773 20.688 130.773 21.552C130.773 22.4 130.949 23.136 131.301 23.76C131.669 24.368 132.189 24.84 132.861 25.176C133.533 25.512 134.325 25.68 135.237 25.68Z" fill="#002D62"/>
<path d="M145.397 14.712H149.453L150.269 19.632V28.368H146.261V19.2L145.397 14.712ZM156.917 14.568V18.024C156.501 17.928 156.085 17.856 155.669 17.808C155.253 17.76 154.861 17.736 154.493 17.736C153.693 17.736 152.973 17.904 152.333 18.24C151.693 18.576 151.189 19.096 150.821 19.8C150.453 20.504 150.269 21.392 150.269 22.464L149.429 21.456C149.525 20.48 149.701 19.568 149.957 18.72C150.213 17.856 150.565 17.104 151.013 16.464C151.477 15.808 152.045 15.296 152.717 14.928C153.389 14.544 154.189 14.352 155.117 14.352C155.421 14.352 155.725 14.376 156.029 14.424C156.349 14.456 156.645 14.504 156.917 14.568Z" fill="#002D62"/>
<path d="M158.772 14.568L160.764 14.952L162.78 14.568V28.368H158.772V14.568ZM160.764 13.152C160.044 13.152 159.452 12.968 158.988 12.6C158.54 12.216 158.316 11.712 158.316 11.088C158.316 10.448 158.54 9.944 158.988 9.576C159.452 9.192 160.044 9 160.764 9C161.5 9 162.092 9.192 162.54 9.576C162.988 9.944 163.212 10.448 163.212 11.088C163.212 11.712 162.988 12.216 162.54 12.6C162.092 12.968 161.5 13.152 160.764 13.152Z" fill="#002D62"/>
<path d="M171.587 28.728C170.323 28.728 169.243 28.472 168.347 27.96C167.467 27.432 166.787 26.688 166.307 25.728C165.843 24.768 165.611 23.632 165.611 22.32V14.712H169.619V21.72C169.619 22.936 169.907 23.864 170.483 24.504C171.059 25.128 171.875 25.44 172.931 25.44C173.715 25.44 174.379 25.28 174.923 24.96C175.483 24.624 175.915 24.144 176.219 23.52C176.523 22.896 176.675 22.168 176.675 21.336L177.971 22.032C177.811 23.44 177.435 24.648 176.843 25.656C176.251 26.648 175.499 27.408 174.587 27.936C173.691 28.464 172.691 28.728 171.587 28.728ZM177.515 28.368L176.675 23.184V14.712H180.683V23.784L181.523 28.368H177.515Z" fill="#002D62"/>
<path d="M183.249 14.712H187.257L188.121 19.92V28.368H184.113V19.32L183.249 14.712ZM192.993 14.352C194.209 14.352 195.249 14.616 196.113 15.144C196.977 15.656 197.633 16.392 198.081 17.352C198.545 18.312 198.777 19.456 198.777 20.784V28.368H194.769V21.384C194.769 20.152 194.497 19.224 193.953 18.6C193.425 17.96 192.649 17.64 191.625 17.64C190.905 17.64 190.281 17.816 189.753 18.168C189.225 18.504 188.817 18.976 188.529 19.584C188.257 20.192 188.121 20.92 188.121 21.768L186.801 21.072C186.961 19.632 187.329 18.416 187.905 17.424C188.481 16.432 189.201 15.672 190.065 15.144C190.945 14.616 191.921 14.352 192.993 14.352ZM203.625 14.352C204.841 14.352 205.881 14.616 206.745 15.144C207.625 15.656 208.289 16.392 208.737 17.352C209.201 18.312 209.433 19.456 209.433 20.784V28.368H205.425V21.384C205.425 20.152 205.153 19.224 204.609 18.6C204.081 17.96 203.305 17.64 202.281 17.64C201.561 17.64 200.937 17.816 200.409 18.168C199.881 18.504 199.473 18.976 199.185 19.584C198.913 20.192 198.777 20.92 198.777 21.768L197.457 21.072C197.617 19.632 197.985 18.416 198.561 17.424C199.137 16.432 199.857 15.672 200.721 15.144C201.601 14.616 202.569 14.352 203.625 14.352Z" fill="#002D62"/>
</svg>
