<svg width="233" height="40" viewBox="0 0 233 40" fill="none" xmlns="http://www.w3.org/2000/svg">
<path d="M0 14.4C0 8.40043 0 5.40064 1.52786 3.29772C2.0213 2.61856 2.61856 2.0213 3.29772 1.52786C5.40064 0 8.40043 0 14.4 0H207.936C212.316 0 214.505 0 216.283 0.958062C216.864 1.27128 217.404 1.65521 217.89 2.10108C219.379 3.4649 220.098 5.53304 221.537 9.6693L225.433 20.8693C228.106 28.5561 229.443 32.3995 228.114 35.3166C227.692 36.2442 227.096 37.0826 226.358 37.7865C224.04 40 219.971 40 211.832 40H14.4C8.40043 40 5.40064 40 3.29772 38.4721C2.61856 37.9787 2.0213 37.3814 1.52786 36.7023C0 34.5994 0 31.5996 0 25.6V14.4Z" fill="#002D62"/>
<path d="M16 14.712H20.056L20.872 19.632V28.368H16.864V19.2L16 14.712ZM27.52 14.568V18.024C27.104 17.928 26.688 17.856 26.272 17.808C25.856 17.76 25.464 17.736 25.096 17.736C24.296 17.736 23.576 17.904 22.936 18.24C22.296 18.576 21.792 19.096 21.424 19.8C21.056 20.504 20.872 21.392 20.872 22.464L20.032 21.456C20.128 20.48 20.304 19.568 20.56 18.72C20.816 17.856 21.168 17.104 21.616 16.464C22.08 15.808 22.648 15.296 23.32 14.928C23.992 14.544 24.792 14.352 25.72 14.352C26.024 14.352 26.328 14.376 26.632 14.424C26.952 14.456 27.248 14.504 27.52 14.568Z" fill="white"/>
<path d="M36.6567 28.728C35.0407 28.728 33.5927 28.432 32.3127 27.84C31.0487 27.232 30.0487 26.384 29.3127 25.296C28.5927 24.208 28.2327 22.944 28.2327 21.504C28.2327 20.08 28.5767 18.832 29.2647 17.76C29.9687 16.688 30.9287 15.856 32.1447 15.264C33.3607 14.656 34.7447 14.352 36.2967 14.352C37.8807 14.352 39.2407 14.704 40.3767 15.408C41.5127 16.096 42.3847 17.072 42.9927 18.336C43.6167 19.6 43.9287 21.088 43.9287 22.8H31.4487V20.136H41.7687L40.2087 21.096C40.1447 20.296 39.9447 19.616 39.6087 19.056C39.2887 18.496 38.8487 18.064 38.2887 17.76C37.7287 17.456 37.0727 17.304 36.3207 17.304C35.5047 17.304 34.7927 17.472 34.1847 17.808C33.5927 18.128 33.1287 18.584 32.7927 19.176C32.4727 19.752 32.3127 20.432 32.3127 21.216C32.3127 22.16 32.5207 22.968 32.9367 23.64C33.3527 24.312 33.9607 24.824 34.7607 25.176C35.5607 25.528 36.5287 25.704 37.6647 25.704C38.6887 25.704 39.7207 25.56 40.7607 25.272C41.8007 24.968 42.7367 24.544 43.5687 24V26.688C42.6727 27.328 41.6247 27.832 40.4247 28.2C39.2407 28.552 37.9847 28.728 36.6567 28.728Z" fill="white"/>
<path d="M61.945 22.8C61.785 23.968 61.329 25 60.577 25.896C59.841 26.792 58.889 27.488 57.721 27.984C56.553 28.48 55.249 28.728 53.809 28.728C52.177 28.728 50.737 28.432 49.489 27.84C48.257 27.232 47.289 26.384 46.585 25.296C45.897 24.208 45.553 22.96 45.553 21.552C45.553 20.128 45.897 18.88 46.585 17.808C47.289 16.72 48.257 15.872 49.489 15.264C50.737 14.656 52.177 14.352 53.809 14.352C55.249 14.352 56.553 14.608 57.721 15.12C58.889 15.616 59.841 16.312 60.577 17.208C61.329 18.088 61.785 19.12 61.945 20.304H57.937C57.729 19.376 57.249 18.664 56.497 18.168C55.761 17.656 54.865 17.4 53.809 17.4C52.961 17.4 52.217 17.568 51.577 17.904C50.953 18.224 50.473 18.696 50.137 19.32C49.801 19.928 49.633 20.672 49.633 21.552C49.633 22.416 49.801 23.16 50.137 23.784C50.473 24.392 50.953 24.864 51.577 25.2C52.217 25.52 52.961 25.68 53.809 25.68C54.881 25.68 55.785 25.416 56.521 24.888C57.273 24.36 57.745 23.664 57.937 22.8H61.945Z" fill="white"/>
<path d="M63.4375 14.712H67.4935L68.3095 19.632V28.368H64.3015V19.2L63.4375 14.712ZM74.9575 14.568V18.024C74.5415 17.928 74.1255 17.856 73.7095 17.808C73.2935 17.76 72.9015 17.736 72.5335 17.736C71.7335 17.736 71.0135 17.904 70.3735 18.24C69.7335 18.576 69.2295 19.096 68.8615 19.8C68.4935 20.504 68.3095 21.392 68.3095 22.464L67.4695 21.456C67.5655 20.48 67.7415 19.568 67.9975 18.72C68.2535 17.856 68.6055 17.104 69.0535 16.464C69.5175 15.808 70.0855 15.296 70.7575 14.928C71.4295 14.544 72.2295 14.352 73.1575 14.352C73.4615 14.352 73.7655 14.376 74.0695 14.424C74.3895 14.456 74.6855 14.504 74.9575 14.568Z" fill="white"/>
<path d="M84.0942 28.728C82.4782 28.728 81.0302 28.432 79.7502 27.84C78.4862 27.232 77.4862 26.384 76.7502 25.296C76.0302 24.208 75.6702 22.944 75.6702 21.504C75.6702 20.08 76.0142 18.832 76.7022 17.76C77.4062 16.688 78.3662 15.856 79.5822 15.264C80.7982 14.656 82.1822 14.352 83.7342 14.352C85.3182 14.352 86.6782 14.704 87.8142 15.408C88.9502 16.096 89.8222 17.072 90.4302 18.336C91.0542 19.6 91.3662 21.088 91.3662 22.8H78.8862V20.136H89.2062L87.6462 21.096C87.5822 20.296 87.3822 19.616 87.0462 19.056C86.7262 18.496 86.2862 18.064 85.7262 17.76C85.1662 17.456 84.5102 17.304 83.7582 17.304C82.9422 17.304 82.2302 17.472 81.6222 17.808C81.0302 18.128 80.5662 18.584 80.2302 19.176C79.9102 19.752 79.7502 20.432 79.7502 21.216C79.7502 22.16 79.9582 22.968 80.3742 23.64C80.7902 24.312 81.3982 24.824 82.1982 25.176C82.9982 25.528 83.9662 25.704 85.1022 25.704C86.1262 25.704 87.1582 25.56 88.1982 25.272C89.2382 24.968 90.1742 24.544 91.0062 24V26.688C90.1102 27.328 89.0622 27.832 87.8622 28.2C86.6782 28.552 85.4222 28.728 84.0942 28.728Z" fill="white"/>
<path d="M106.215 28.368L105.638 23.376L106.286 21.552L105.638 19.752L106.215 14.712H110.367L109.575 21.552L110.367 28.368H106.215ZM107.271 21.552C107.015 22.992 106.543 24.256 105.854 25.344C105.183 26.416 104.326 27.248 103.286 27.84C102.262 28.432 101.11 28.728 99.8305 28.728C98.5025 28.728 97.3265 28.432 96.3025 27.84C95.2785 27.232 94.4785 26.392 93.9025 25.32C93.3425 24.232 93.0625 22.976 93.0625 21.552C93.0625 20.112 93.3425 18.856 93.9025 17.784C94.4785 16.696 95.2785 15.856 96.3025 15.264C97.3265 14.656 98.5025 14.352 99.8305 14.352C101.11 14.352 102.262 14.648 103.286 15.24C104.326 15.832 105.19 16.672 105.879 17.76C106.566 18.832 107.031 20.096 107.271 21.552ZM97.1185 21.552C97.1185 22.352 97.2785 23.056 97.5985 23.664C97.9345 24.272 98.3905 24.752 98.9665 25.104C99.5425 25.44 100.207 25.608 100.959 25.608C101.711 25.608 102.415 25.44 103.071 25.104C103.743 24.752 104.334 24.272 104.846 23.664C105.358 23.056 105.758 22.352 106.047 21.552C105.758 20.752 105.358 20.048 104.846 19.44C104.334 18.816 103.743 18.336 103.071 18C102.415 17.648 101.711 17.472 100.959 17.472C100.207 17.472 99.5425 17.648 98.9665 18C98.3905 18.336 97.9345 18.816 97.5985 19.44C97.2785 20.048 97.1185 20.752 97.1185 21.552Z" fill="white"/>
<path d="M111.654 17.736V15.96L114.51 15.024L116.214 11.112H118.518V14.712H124.566V17.736H118.518V22.704C118.518 23.76 118.734 24.504 119.166 24.936C119.614 25.352 120.382 25.56 121.47 25.56C122.158 25.56 122.766 25.496 123.294 25.368C123.822 25.24 124.326 25.056 124.806 24.816V27.936C124.342 28.128 123.726 28.304 122.958 28.464C122.19 28.64 121.398 28.728 120.582 28.728C119.158 28.728 117.998 28.504 117.102 28.056C116.222 27.592 115.566 26.952 115.134 26.136C114.718 25.32 114.51 24.368 114.51 23.28V17.736H111.654Z" fill="white"/>
<path d="M134.324 28.728C132.628 28.728 131.14 28.432 129.86 27.84C128.58 27.232 127.58 26.392 126.86 25.32C126.14 24.232 125.78 22.976 125.78 21.552C125.78 20.112 126.14 18.856 126.86 17.784C127.58 16.696 128.58 15.856 129.86 15.264C131.14 14.656 132.628 14.352 134.324 14.352C136.02 14.352 137.508 14.656 138.788 15.264C140.068 15.856 141.06 16.696 141.764 17.784C142.484 18.856 142.844 20.112 142.844 21.552C142.844 22.976 142.484 24.232 141.764 25.32C141.06 26.392 140.068 27.232 138.788 27.84C137.508 28.432 136.02 28.728 134.324 28.728ZM134.324 25.68C135.252 25.68 136.044 25.512 136.7 25.176C137.372 24.84 137.884 24.368 138.236 23.76C138.604 23.136 138.788 22.4 138.788 21.552C138.788 20.688 138.604 19.952 138.236 19.344C137.884 18.72 137.372 18.24 136.7 17.904C136.044 17.568 135.252 17.4 134.324 17.4C133.412 17.4 132.62 17.568 131.948 17.904C131.276 18.24 130.756 18.72 130.388 19.344C130.036 19.952 129.86 20.688 129.86 21.552C129.86 22.4 130.036 23.136 130.388 23.76C130.756 24.368 131.276 24.84 131.948 25.176C132.62 25.512 133.412 25.68 134.324 25.68Z" fill="white"/>
<path d="M144.484 14.712H148.54L149.356 19.632V28.368H145.348V19.2L144.484 14.712ZM156.004 14.568V18.024C155.588 17.928 155.172 17.856 154.756 17.808C154.34 17.76 153.948 17.736 153.58 17.736C152.78 17.736 152.06 17.904 151.42 18.24C150.78 18.576 150.276 19.096 149.908 19.8C149.54 20.504 149.356 21.392 149.356 22.464L148.516 21.456C148.612 20.48 148.788 19.568 149.044 18.72C149.3 17.856 149.652 17.104 150.1 16.464C150.564 15.808 151.132 15.296 151.804 14.928C152.476 14.544 153.276 14.352 154.204 14.352C154.508 14.352 154.812 14.376 155.116 14.424C155.436 14.456 155.732 14.504 156.004 14.568Z" fill="white"/>
<path d="M157.859 14.568L159.851 14.952L161.867 14.568V28.368H157.859V14.568ZM159.851 13.152C159.131 13.152 158.539 12.968 158.075 12.6C157.627 12.216 157.403 11.712 157.403 11.088C157.403 10.448 157.627 9.944 158.075 9.576C158.539 9.192 159.131 9 159.851 9C160.587 9 161.179 9.192 161.627 9.576C162.075 9.944 162.299 10.448 162.299 11.088C162.299 11.712 162.075 12.216 161.627 12.6C161.179 12.968 160.587 13.152 159.851 13.152Z" fill="white"/>
<path d="M170.674 28.728C169.41 28.728 168.33 28.472 167.434 27.96C166.554 27.432 165.874 26.688 165.394 25.728C164.93 24.768 164.698 23.632 164.698 22.32V14.712H168.706V21.72C168.706 22.936 168.994 23.864 169.57 24.504C170.146 25.128 170.962 25.44 172.018 25.44C172.802 25.44 173.466 25.28 174.01 24.96C174.57 24.624 175.002 24.144 175.306 23.52C175.61 22.896 175.762 22.168 175.762 21.336L177.058 22.032C176.898 23.44 176.522 24.648 175.93 25.656C175.338 26.648 174.586 27.408 173.674 27.936C172.778 28.464 171.778 28.728 170.674 28.728ZM176.602 28.368L175.762 23.184V14.712H179.77V23.784L180.61 28.368H176.602Z" fill="white"/>
<path d="M182.336 14.712H186.344L187.208 19.92V28.368H183.2V19.32L182.336 14.712ZM192.08 14.352C193.296 14.352 194.336 14.616 195.2 15.144C196.064 15.656 196.72 16.392 197.168 17.352C197.632 18.312 197.864 19.456 197.864 20.784V28.368H193.856V21.384C193.856 20.152 193.584 19.224 193.04 18.6C192.512 17.96 191.736 17.64 190.712 17.64C189.992 17.64 189.368 17.816 188.84 18.168C188.312 18.504 187.904 18.976 187.616 19.584C187.344 20.192 187.208 20.92 187.208 21.768L185.888 21.072C186.048 19.632 186.416 18.416 186.992 17.424C187.568 16.432 188.288 15.672 189.152 15.144C190.032 14.616 191.008 14.352 192.08 14.352ZM202.712 14.352C203.928 14.352 204.968 14.616 205.832 15.144C206.712 15.656 207.376 16.392 207.824 17.352C208.288 18.312 208.52 19.456 208.52 20.784V28.368H204.512V21.384C204.512 20.152 204.24 19.224 203.696 18.6C203.168 17.96 202.392 17.64 201.368 17.64C200.648 17.64 200.024 17.816 199.496 18.168C198.968 18.504 198.56 18.976 198.272 19.584C198 20.192 197.864 20.92 197.864 21.768L196.544 21.072C196.704 19.632 197.072 18.416 197.648 17.424C198.224 16.432 198.944 15.672 199.808 15.144C200.688 14.616 201.656 14.352 202.712 14.352Z" fill="white"/>
</svg>
