<svg width="115" height="80" viewBox="0 0 115 80" fill="none" xmlns="http://www.w3.org/2000/svg">
<path fill-rule="evenodd" clip-rule="evenodd" d="M0.188763 28.5354C-0.922466 22.6682 2.98906 17.0231 8.85635 15.9563L94.3321 0.176889C100.199 -0.889891 105.844 2.97719 106.956 8.84447L114.823 51.4268C115.89 57.294 112.023 62.9391 106.156 64.0503L20.6354 79.8298C14.7681 80.8965 9.12304 77.0295 8.01181 71.1622L0.188763 28.5354Z" fill="#3AB6A5"/>
<path fill-rule="evenodd" clip-rule="evenodd" d="M3.21144 18.3566C3.21144 12.356 8.0564 7.511 14.057 7.511H100.955C106.956 7.511 111.801 12.356 111.801 18.3566V61.6501C111.801 67.6507 106.956 72.4957 100.955 72.4957H14.0126C8.01195 72.4957 3.16699 67.6507 3.16699 61.6501V18.3566H3.21144Z" fill="#314961"/>
<path d="M90.1082 27.6909C88.9969 27.6909 88.0635 27.3353 87.3079 26.5796C86.5522 25.824 86.1522 24.935 86.1522 23.8238C86.1522 22.7126 86.5522 21.8236 87.3079 21.0679C88.0635 20.3568 88.9969 20.0012 90.1082 20.0012C91.2194 20.0012 92.1528 20.3568 92.9085 21.0679C93.6641 21.8236 94.0641 22.7126 94.0641 23.8238C94.0641 24.935 93.6641 25.824 92.9085 26.5796C92.1528 27.3353 91.2194 27.6909 90.1082 27.6909ZM86.4189 30.7134H93.753V58.4497H86.4189V30.7134ZM74.062 58.4497H65.7945L56.1935 30.7134H64.061L69.9727 51.8712H70.106L75.9733 30.7134H83.663L74.062 58.4497ZM49.6594 27.6909C48.5482 27.6909 47.6148 27.3353 46.8591 26.5796C46.1035 25.824 45.7035 24.935 45.7035 23.8238C45.7035 22.7126 46.1035 21.8236 46.8591 21.0679C47.6148 20.3568 48.5482 20.0012 49.6594 20.0012C50.7707 20.0012 51.7041 20.3568 52.4597 21.0679C53.2154 21.8236 53.6154 22.7126 53.6154 23.8238C53.6154 24.935 53.2154 25.824 52.4597 26.5796C51.7041 27.3353 50.7707 27.6909 49.6594 27.6909ZM46.0146 30.7134H53.3487V58.4497H46.0146V30.7134ZM22.7677 47.7374C22.8122 49.2043 23.2566 50.4044 24.1456 51.2934C25.0346 52.1823 26.1903 52.6268 27.6127 52.6268C30.8574 52.6268 32.5021 50.76 32.5021 47.0262V22.1347H40.1029V47.0707C40.1029 50.8933 38.9916 53.9159 36.8136 56.0494C34.6356 58.183 31.6131 59.2053 27.7016 59.2053C24.0123 59.2053 20.9897 58.183 18.7673 56.0939C16.5448 54.0048 15.4336 51.2489 15.4336 47.7374H22.7677Z" fill="white"/>
</svg>
