<svg version="1.1" xmlns="http://www.w3.org/2000/svg" xmlns:xlink="http://www.w3.org/1999/xlink">

    <symbol viewBox="0 0 8 4" id="nav-arrow">
        <path d="M3.87728 3.56283L0.543945 0.229492H7.21061L3.87728 3.56283Z" />
    </symbol>

    <symbol viewBox="0 0 16 17" id="header-search">
        <circle cx="7.3273" cy="7.89078" r="5.04214" stroke-width="1.5" stroke-linecap="round" stroke-linejoin="round" />
        <path d="M13.714 14.2765L10.8926 11.4551" stroke-width="1.5" stroke-linecap="round" stroke-linejoin="round" />
    </symbol>

    <symbol viewBox="0 0 24 25" id="icon-phone">
        <path d="M19.431 21.0047C17.4861 21.0047 15.5602 20.5432 13.6531 19.6201C11.7461 18.6971 10.0435 17.4865 8.54548 15.9884C7.0474 14.4903 5.83522 12.7894 4.90896 10.8856C3.98267 8.98172 3.51953 7.05737 3.51953 5.1125C3.51953 4.8125 3.61953 4.5625 3.81953 4.3625C4.01953 4.1625 4.26953 4.0625 4.56953 4.0625H7.83101C8.08999 4.0625 8.31596 4.14231 8.50891 4.30192C8.70184 4.46154 8.82139 4.66763 8.86756 4.9202L9.44063 7.86247C9.48036 8.10862 9.4762 8.33234 9.42813 8.53363C9.38005 8.73491 9.2746 8.91055 9.11178 9.06055L6.81178 11.3086C7.60153 12.6497 8.54321 13.8612 9.63681 14.9433C10.7304 16.0253 11.9682 16.9689 13.3503 17.774L15.5849 15.5009C15.7477 15.3381 15.9403 15.2224 16.1628 15.1539C16.3852 15.0853 16.6131 15.0708 16.8464 15.1106L19.6233 15.676C19.8758 15.7324 20.0819 15.8545 20.2416 16.0423C20.4012 16.2301 20.481 16.4535 20.481 16.7125V19.9547C20.481 20.2547 20.381 20.5047 20.181 20.7047C19.981 20.9047 19.731 21.0047 19.431 21.0047ZM6.09258 9.88942L7.87721 8.18172C7.90926 8.15607 7.93009 8.12082 7.93971 8.07595C7.94932 8.03107 7.94771 7.9894 7.93488 7.95095L7.50028 5.71632C7.48745 5.66504 7.46501 5.62658 7.43296 5.60095C7.40091 5.5753 7.35924 5.56247 7.30796 5.56247H5.16951C5.13104 5.56247 5.09898 5.5753 5.07333 5.60095C5.0477 5.62658 5.03488 5.65863 5.03488 5.6971C5.08615 6.38043 5.19801 7.07467 5.37046 7.7798C5.54289 8.48493 5.7836 9.18814 6.09258 9.88942ZM14.7541 18.474C15.4169 18.783 16.1082 19.0192 16.8281 19.1827C17.548 19.3461 18.2208 19.4432 18.8464 19.474C18.8849 19.474 18.9169 19.4612 18.9426 19.4355C18.9682 19.4099 18.981 19.3778 18.981 19.3394V17.2355C18.981 17.1843 18.9682 17.1426 18.9426 17.1105C18.9169 17.0785 18.8785 17.056 18.8272 17.0432L16.7272 16.6163C16.6887 16.6035 16.6551 16.6019 16.6262 16.6115C16.5974 16.6211 16.5669 16.6419 16.5349 16.674L14.7541 18.474Z" />
    </symbol>

    <symbol viewBox="0 0 16 17" id="icon-selected">
        <path d="M6.36641 12.0626L2.56641 8.26257L3.51641 7.31257L6.36641 10.1626L12.4831 4.0459L13.4331 4.9959L6.36641 12.0626Z" />
    </symbol>

    <symbol viewBox="0 0 24 25" id="icon-fb">
        <path d="M24 12.5625C24 5.93508 18.6274 0.5625 12 0.5625C5.37258 0.5625 0 5.93508 0 12.5625C0 18.552 4.3882 23.5165 10.125 24.4167V16.0312H7.07812V12.5625H10.125V9.91875C10.125 6.91125 11.9166 5.25 14.6576 5.25C15.9701 5.25 17.3438 5.48438 17.3438 5.48438V8.4375H15.8306C14.34 8.4375 13.875 9.36258 13.875 10.3125V12.5625H17.2031L16.6711 16.0312H13.875V24.4167C19.6118 23.5165 24 18.552 24 12.5625Z" />
    </symbol>

    <symbol viewBox="0 0 24 25" id="icon-tg">
        <path fill-rule="evenodd" clip-rule="evenodd" d="M24 12.5625C24 19.1899 18.6274 24.5625 12 24.5625C5.37258 24.5625 0 19.1899 0 12.5625C0 5.93508 5.37258 0.5625 12 0.5625C18.6274 0.5625 24 5.93508 24 12.5625ZM12.43 9.42143C11.2628 9.9069 8.93013 10.9117 5.43188 12.4358C4.86382 12.6617 4.56625 12.8827 4.53916 13.0988C4.49337 13.464 4.9507 13.6078 5.57346 13.8036C5.65817 13.8303 5.74594 13.8579 5.83593 13.8871C6.44863 14.0863 7.27282 14.3193 7.70128 14.3285C8.08993 14.3369 8.52372 14.1767 9.00263 13.8478C12.2711 11.6415 13.9584 10.5263 14.0643 10.5023C14.139 10.4853 14.2426 10.464 14.3128 10.5263C14.3829 10.5887 14.376 10.7068 14.3686 10.7385C14.3233 10.9316 12.5281 12.6006 11.5991 13.4643C11.3095 13.7335 11.1041 13.9245 11.0621 13.9681C10.968 14.0658 10.8721 14.1583 10.78 14.2471C10.2108 14.7958 9.7839 15.2073 10.8036 15.8793C11.2936 16.2022 11.6858 16.4692 12.0769 16.7356C12.5042 17.0266 12.9303 17.3168 13.4816 17.6782C13.6221 17.7702 13.7562 17.8659 13.8869 17.959C14.3841 18.3135 14.8307 18.6319 15.3826 18.5811C15.7032 18.5516 16.0345 18.2501 16.2027 17.3509C16.6002 15.2256 17.3816 10.621 17.5622 8.72347C17.578 8.55723 17.5581 8.34447 17.5421 8.25108C17.5262 8.15768 17.4928 8.02461 17.3714 7.9261C17.2276 7.80944 17.0056 7.78484 16.9064 7.78658C16.455 7.79454 15.7625 8.03532 12.43 9.42143Z" />
    </symbol>

    <symbol viewBox="0 0 24 25" id="icon-yt">
        <path fill-rule="evenodd" clip-rule="evenodd" d="M24 12.5625C24 19.1899 18.6274 24.5625 12 24.5625C5.37258 24.5625 0 19.1899 0 12.5625C0 5.93508 5.37258 0.5625 12 0.5625C18.6274 0.5625 24 5.93508 24 12.5625ZM19.2031 7.77503C19.6844 8.25941 19.8406 9.36253 19.8406 9.36253C19.8406 9.36253 20 10.6594 20 11.9532V13.1657C20 14.4625 19.8406 15.7563 19.8406 15.7563C19.8406 15.7563 19.6844 16.8594 19.2031 17.3438C18.654 17.9182 18.0466 17.9776 17.7031 18.0111C17.6654 18.0148 17.6309 18.0182 17.6 18.0219C15.3625 18.1813 12 18.1875 12 18.1875C12 18.1875 7.84063 18.15 6.55938 18.0282C6.49706 18.0161 6.42116 18.0069 6.33508 17.9964C5.92907 17.9469 5.29653 17.8698 4.79375 17.3438C4.31563 16.8594 4.15938 15.7563 4.15938 15.7563C4.15938 15.7563 4 14.4594 4 13.1657V11.9532C4 10.6594 4.1625 9.36253 4.1625 9.36253C4.1625 9.36253 4.31563 8.25941 4.79688 7.77503C5.34597 7.20059 5.95343 7.14123 6.29687 7.10767C6.33457 7.10399 6.36909 7.10061 6.4 7.0969C8.6375 6.9344 11.9969 6.93441 11.9969 6.93441H12.0031C12.0031 6.93441 15.3625 6.9344 17.6 7.0969C17.6309 7.10061 17.6654 7.10399 17.7031 7.10767C18.0466 7.14123 18.654 7.20059 19.2031 7.77503ZM10.3469 10.1407V14.6375L14.6687 12.3969L10.3469 10.1407Z" />
    </symbol>

    <symbol viewBox="0 0 31 23" id="blockquote-left">
        <path d="M30.5 0.5625L24.134 13.9941L23.5769 10.366C24.7971 10.366 25.8846 10.6491 26.8395 11.2151C27.7944 11.7812 28.5637 12.5274 29.1472 13.4537C29.7308 14.3286 30.0225 15.3321 30.0225 16.4643C30.0225 17.5964 29.7308 18.6257 29.1472 19.552C28.5637 20.4783 27.7944 21.2245 26.8395 21.7906C25.8846 22.3052 24.7971 22.5625 23.5769 22.5625C22.4098 22.5625 21.3223 22.3052 20.3143 21.7906C19.3594 21.2245 18.5902 20.4526 18.0066 19.4748C17.4231 18.497 17.1313 17.4163 17.1313 16.2327C17.1313 15.049 17.37 13.814 17.8475 12.5274C18.378 11.2409 19.3064 9.56835 20.6326 7.50987L24.9297 0.5625H30.5ZM13.8687 0.5625L7.50265 13.9941L6.94562 10.366C8.16578 10.366 9.25332 10.6491 10.2082 11.2151C11.1631 11.7812 11.9324 12.5274 12.5159 13.4537C13.0995 14.3286 13.3912 15.3321 13.3912 16.4643C13.3912 17.5964 13.0995 18.6257 12.5159 19.552C11.9324 20.4783 11.1631 21.2245 10.2082 21.7906C9.25332 22.3052 8.16578 22.5625 6.94562 22.5625C5.77851 22.5625 4.69098 22.3052 3.68302 21.7906C2.72812 21.2245 1.95889 20.4526 1.37533 19.4748C0.791777 18.497 0.5 17.4163 0.5 16.2327C0.5 15.049 0.738727 13.814 1.21618 12.5274C1.74668 11.2409 2.67507 9.56835 4.00133 7.50987L8.29841 0.5625H13.8687Z" />
    </symbol>

    <symbol viewBox="0 0 31 23" id="blockquote-right">
        <path d="M0.5 0.5625L6.86605 13.9941L7.42308 10.366C6.20292 10.366 5.11539 10.6491 4.16048 11.2151C3.20557 11.7812 2.43634 12.5274 1.85279 13.4537C1.26923 14.3286 0.977455 15.3321 0.977455 16.4643C0.977455 17.5964 1.26923 18.6257 1.85279 19.552C2.43634 20.4783 3.20557 21.2245 4.16048 21.7906C5.11539 22.3052 6.20292 22.5625 7.42308 22.5625C8.59019 22.5625 9.67772 22.3052 10.6857 21.7906C11.6406 21.2245 12.4098 20.4526 12.9934 19.4748C13.5769 18.497 13.8687 17.4163 13.8687 16.2327C13.8687 15.049 13.63 13.814 13.1525 12.5274C12.622 11.2409 11.6936 9.56835 10.3674 7.50987L6.07029 0.5625H0.5ZM17.1313 0.5625L23.4973 13.9941L24.0544 10.366C22.8342 10.366 21.7467 10.6491 20.7918 11.2151C19.8369 11.7812 19.0676 12.5274 18.4841 13.4537C17.9005 14.3286 17.6088 15.3321 17.6088 16.4643C17.6088 17.5964 17.9005 18.6257 18.4841 19.552C19.0676 20.4783 19.8369 21.2245 20.7918 21.7906C21.7467 22.3052 22.8342 22.5625 24.0544 22.5625C25.2215 22.5625 26.309 22.3052 27.317 21.7906C28.2719 21.2245 29.0411 20.4526 29.6247 19.4748C30.2082 18.497 30.5 17.4163 30.5 16.2327C30.5 15.049 30.2613 13.814 29.7838 12.5274C29.2533 11.2409 28.3249 9.56835 26.9987 7.50987L22.7016 0.5625H17.1313Z" />
    </symbol>

    <symbol viewBox="0 0 17 9" id="more-link">
        <path d="M16.8536 4.91605C17.0488 4.72079 17.0488 4.40421 16.8536 4.20895L13.6716 1.02697C13.4763 0.831704 13.1597 0.831704 12.9645 1.02697C12.7692 1.22223 12.7692 1.53881 12.9645 1.73407L15.7929 4.5625L12.9645 7.39093C12.7692 7.58619 12.7692 7.90277 12.9645 8.09803C13.1597 8.2933 13.4763 8.2933 13.6716 8.09803L16.8536 4.91605ZM0.5 5.0625H16.5V4.0625H0.5V5.0625Z" />
    </symbol>

    <symbol viewBox="0 0 24 25" id="text-info">
        <path d="M11 17.5625H13V11.5625H11V17.5625ZM12 9.5625C12.2833 9.5625 12.5208 9.46667 12.7125 9.275C12.9042 9.08333 13 8.84583 13 8.5625C13 8.27917 12.9042 8.04167 12.7125 7.85C12.5208 7.65833 12.2833 7.5625 12 7.5625C11.7167 7.5625 11.4792 7.65833 11.2875 7.85C11.0958 8.04167 11 8.27917 11 8.5625C11 8.84583 11.0958 9.08333 11.2875 9.275C11.4792 9.46667 11.7167 9.5625 12 9.5625ZM12 22.5625C10.6167 22.5625 9.31667 22.3 8.1 21.775C6.88333 21.25 5.825 20.5375 4.925 19.6375C4.025 18.7375 3.3125 17.6792 2.7875 16.4625C2.2625 15.2458 2 13.9458 2 12.5625C2 11.1792 2.2625 9.87917 2.7875 8.6625C3.3125 7.44583 4.025 6.3875 4.925 5.4875C5.825 4.5875 6.88333 3.875 8.1 3.35C9.31667 2.825 10.6167 2.5625 12 2.5625C13.3833 2.5625 14.6833 2.825 15.9 3.35C17.1167 3.875 18.175 4.5875 19.075 5.4875C19.975 6.3875 20.6875 7.44583 21.2125 8.6625C21.7375 9.87917 22 11.1792 22 12.5625C22 13.9458 21.7375 15.2458 21.2125 16.4625C20.6875 17.6792 19.975 18.7375 19.075 19.6375C18.175 20.5375 17.1167 21.25 15.9 21.775C14.6833 22.3 13.3833 22.5625 12 22.5625ZM12 20.5625C14.2333 20.5625 16.125 19.7875 17.675 18.2375C19.225 16.6875 20 14.7958 20 12.5625C20 10.3292 19.225 8.4375 17.675 6.8875C16.125 5.3375 14.2333 4.5625 12 4.5625C9.76667 4.5625 7.875 5.3375 6.325 6.8875C4.775 8.4375 4 10.3292 4 12.5625C4 14.7958 4.775 16.6875 6.325 18.2375C7.875 19.7875 9.76667 20.5625 12 20.5625Z" />
    </symbol>

    <symbol viewBox="0 0 16 20" id="text-info-corner">
        <path d="M0 17.7618C0 19.6631 2.40323 20.4917 3.57501 18.9944L15.4701 3.79511C16.4976 2.48228 15.5622 0.5625 13.8951 0.5625H2C0.89543 0.5625 0 1.45793 0 2.5625L0 17.7618Z" />
    </symbol>

    <symbol viewBox="0 0 37 37" id="window-close">
        <path d="M10.1 29.0625L8 26.9625L16.4 18.5625L8 10.1625L10.1 8.0625L18.5 16.4625L26.9 8.0625L29 10.1625L20.6 18.5625L29 26.9625L26.9 29.0625L18.5 20.6625L10.1 29.0625Z" />
    </symbol>

    <symbol viewBox="0 0 24 24" id="icon-signup">
        <path d="M5.85 17.1C6.7 16.45 7.65 15.9375 8.7 15.5625C9.75 15.1875 10.85 15 12 15C13.15 15 14.25 15.1875 15.3 15.5625C16.35 15.9375 17.3 16.45 18.15 17.1C18.7333 16.4167 19.1875 15.6417 19.5125 14.775C19.8375 13.9083 20 12.9833 20 12C20 9.78333 19.2208 7.89583 17.6625 6.3375C16.1042 4.77917 14.2167 4 12 4C9.78333 4 7.89583 4.77917 6.3375 6.3375C4.77917 7.89583 4 9.78333 4 12C4 12.9833 4.1625 13.9083 4.4875 14.775C4.8125 15.6417 5.26667 16.4167 5.85 17.1ZM12 13C11.0167 13 10.1875 12.6625 9.5125 11.9875C8.8375 11.3125 8.5 10.4833 8.5 9.5C8.5 8.51667 8.8375 7.6875 9.5125 7.0125C10.1875 6.3375 11.0167 6 12 6C12.9833 6 13.8125 6.3375 14.4875 7.0125C15.1625 7.6875 15.5 8.51667 15.5 9.5C15.5 10.4833 15.1625 11.3125 14.4875 11.9875C13.8125 12.6625 12.9833 13 12 13ZM12 22C10.6167 22 9.31667 21.7375 8.1 21.2125C6.88333 20.6875 5.825 19.975 4.925 19.075C4.025 18.175 3.3125 17.1167 2.7875 15.9C2.2625 14.6833 2 13.3833 2 12C2 10.6167 2.2625 9.31667 2.7875 8.1C3.3125 6.88333 4.025 5.825 4.925 4.925C5.825 4.025 6.88333 3.3125 8.1 2.7875C9.31667 2.2625 10.6167 2 12 2C13.3833 2 14.6833 2.2625 15.9 2.7875C17.1167 3.3125 18.175 4.025 19.075 4.925C19.975 5.825 20.6875 6.88333 21.2125 8.1C21.7375 9.31667 22 10.6167 22 12C22 13.3833 21.7375 14.6833 21.2125 15.9C20.6875 17.1167 19.975 18.175 19.075 19.075C18.175 19.975 17.1167 20.6875 15.9 21.2125C14.6833 21.7375 13.3833 22 12 22ZM12 20C12.8833 20 13.7167 19.8708 14.5 19.6125C15.2833 19.3542 16 18.9833 16.65 18.5C16 18.0167 15.2833 17.6458 14.5 17.3875C13.7167 17.1292 12.8833 17 12 17C11.1167 17 10.2833 17.1292 9.5 17.3875C8.71667 17.6458 8 18.0167 7.35 18.5C8 18.9833 8.71667 19.3542 9.5 19.6125C10.2833 19.8708 11.1167 20 12 20ZM12 11C12.4333 11 12.7917 10.8583 13.075 10.575C13.3583 10.2917 13.5 9.93333 13.5 9.5C13.5 9.06667 13.3583 8.70833 13.075 8.425C12.7917 8.14167 12.4333 8 12 8C11.5667 8 11.2083 8.14167 10.925 8.425C10.6417 8.70833 10.5 9.06667 10.5 9.5C10.5 9.93333 10.6417 10.2917 10.925 10.575C11.2083 10.8583 11.5667 11 12 11Z" />
    </symbol>

    <symbol viewBox="0 0 24 24" id="icon-play">
        <path d="M9.5 16.5L16.5 12L9.5 7.5V16.5ZM12 22C10.6167 22 9.31667 21.7375 8.1 21.2125C6.88333 20.6875 5.825 19.975 4.925 19.075C4.025 18.175 3.3125 17.1167 2.7875 15.9C2.2625 14.6833 2 13.3833 2 12C2 10.6167 2.2625 9.31667 2.7875 8.1C3.3125 6.88333 4.025 5.825 4.925 4.925C5.825 4.025 6.88333 3.3125 8.1 2.7875C9.31667 2.2625 10.6167 2 12 2C13.3833 2 14.6833 2.2625 15.9 2.7875C17.1167 3.3125 18.175 4.025 19.075 4.925C19.975 5.825 20.6875 6.88333 21.2125 8.1C21.7375 9.31667 22 10.6167 22 12C22 13.3833 21.7375 14.6833 21.2125 15.9C20.6875 17.1167 19.975 18.175 19.075 19.075C18.175 19.975 17.1167 20.6875 15.9 21.2125C14.6833 21.7375 13.3833 22 12 22ZM12 20C14.2333 20 16.125 19.225 17.675 17.675C19.225 16.125 20 14.2333 20 12C20 9.76667 19.225 7.875 17.675 6.325C16.125 4.775 14.2333 4 12 4C9.76667 4 7.875 4.775 6.325 6.325C4.775 7.875 4 9.76667 4 12C4 14.2333 4.775 16.125 6.325 17.675C7.875 19.225 9.76667 20 12 20Z" />
    </symbol>

    <symbol viewBox="0 0 24 24" id="icon-calc">
        <path d="M16.5 6H7.5V10.5H16.5V6Z" stroke="white" stroke-width="1.3" stroke-linecap="round" stroke-linejoin="round" fill="none" />
        <path d="M18.75 3H5.25C4.83579 3 4.5 3.33579 4.5 3.75V20.25C4.5 20.6642 4.83579 21 5.25 21H18.75C19.1642 21 19.5 20.6642 19.5 20.25V3.75C19.5 3.33579 19.1642 3 18.75 3Z" stroke="white" stroke-width="1.3" stroke-linecap="round" stroke-linejoin="round" fill="none" />
        <path d="M8.25 15C8.87132 15 9.375 14.4963 9.375 13.875C9.375 13.2537 8.87132 12.75 8.25 12.75C7.62868 12.75 7.125 13.2537 7.125 13.875C7.125 14.4963 7.62868 15 8.25 15Z" />
        <path d="M12 15C12.6213 15 13.125 14.4963 13.125 13.875C13.125 13.2537 12.6213 12.75 12 12.75C11.3787 12.75 10.875 13.2537 10.875 13.875C10.875 14.4963 11.3787 15 12 15Z" />
        <path d="M15.75 15C16.3713 15 16.875 14.4963 16.875 13.875C16.875 13.2537 16.3713 12.75 15.75 12.75C15.1287 12.75 14.625 13.2537 14.625 13.875C14.625 14.4963 15.1287 15 15.75 15Z" />
        <path d="M8.25 18.75C8.87132 18.75 9.375 18.2463 9.375 17.625C9.375 17.0037 8.87132 16.5 8.25 16.5C7.62868 16.5 7.125 17.0037 7.125 17.625C7.125 18.2463 7.62868 18.75 8.25 18.75Z" />
        <path d="M12 18.75C12.6213 18.75 13.125 18.2463 13.125 17.625C13.125 17.0037 12.6213 16.5 12 16.5C11.3787 16.5 10.875 17.0037 10.875 17.625C10.875 18.2463 11.3787 18.75 12 18.75Z" />
        <path d="M15.75 18.75C16.3713 18.75 16.875 18.2463 16.875 17.625C16.875 17.0037 16.3713 16.5 15.75 16.5C15.1287 16.5 14.625 17.0037 14.625 17.625C14.625 18.2463 15.1287 18.75 15.75 18.75Z" />
    </symbol>

    <symbol viewBox="0 0 40 40" id="slider-prev">
        <path d="M13.0417 20L23.0417 10L25.375 12.3333L17.7083 20L25.375 27.6667L23.0417 30L13.0417 20Z" />
    </symbol>

    <symbol viewBox="0 0 40 40" id="slider-next">
        <path d="M26.9583 20L16.9583 30L14.625 27.6667L22.2917 20L14.625 12.3333L16.9583 10L26.9583 20Z" />
    </symbol>

    <symbol viewBox="0 0 16 16" id="main-about-reviews-prev">
        <path d="M6.66667 14.6668L0 8.00016L6.66667 1.3335L7.85 2.51683L2.36667 8.00016L7.85 13.4835L6.66667 14.6668Z" />
    </symbol>

    <symbol viewBox="0 0 16 16" id="main-about-reviews-next">
        <path d="M9.33334 1.33317L16 7.99984L9.33333 14.6665L8.15 13.4832L13.6333 7.99984L8.15 2.5165L9.33334 1.33317Z" />
    </symbol>

    <symbol viewBox="0 0 24 25" id="faq-item-title">
        <path d="M12 15.8746L6 9.87461L7.4 8.47461L12 13.0746L16.6 8.47461L18 9.87461L12 15.8746Z" />
    </symbol>

    <symbol viewBox="0 0 16 17" id="main-more-link">
        <path d="M8.00033 10.5003L4.66699 7.16699H11.3337L8.00033 10.5003Z" />
    </symbol>

    <symbol viewBox="0 0 17 9" id="breadcrumbs">
        <path d="M16.3536 4.85355C16.5488 4.65829 16.5488 4.34171 16.3536 4.14645L13.1716 0.964466C12.9763 0.769204 12.6597 0.769204 12.4645 0.964466C12.2692 1.15973 12.2692 1.47631 12.4645 1.67157L15.2929 4.5L12.4645 7.32843C12.2692 7.52369 12.2692 7.84027 12.4645 8.03553C12.6597 8.2308 12.9763 8.2308 13.1716 8.03553L16.3536 4.85355ZM0 5H16V4H0V5Z" />
    </symbol>

    <symbol viewBox="0 0 24 24" id="input-file">
        <path d="M7.30759 17.2728C5.84396 17.2728 4.60306 16.7603 3.58489 15.7353C2.56671 14.7103 2.05762 13.4664 2.05762 12.0036C2.05762 10.5408 2.57012 9.29688 3.59512 8.27188C4.6201 7.24688 5.864 6.73438 7.32682 6.73438H18.1345C19.1869 6.73438 20.0879 7.1091 20.8373 7.85855C21.5867 8.60798 21.9614 9.5089 21.9614 10.5613C21.9614 11.6137 21.5867 12.5146 20.8373 13.2641C20.0879 14.0135 19.1869 14.3882 18.1345 14.3882H8.38452C7.71683 14.3882 7.15248 14.1577 6.69144 13.6966C6.23043 13.2355 5.99992 12.6711 5.99992 12.0033C5.99992 11.3356 6.23043 10.7712 6.69144 10.3103C7.15248 9.84944 7.71683 9.619 8.38452 9.619H18.1345V10.8113H8.38452C8.0467 10.8113 7.76353 10.9255 7.53499 11.1541C7.30646 11.3826 7.19219 11.6658 7.19219 12.0036C7.19219 12.3414 7.30646 12.6246 7.53499 12.8531C7.76353 13.0817 8.0467 13.1959 8.38452 13.1959H18.1345C18.8722 13.1959 19.4958 12.9412 20.0051 12.4317C20.5145 11.9221 20.7692 11.2984 20.7692 10.5605C20.7692 9.82256 20.5145 9.19911 20.0051 8.69013C19.4958 8.18116 18.8722 7.92668 18.1345 7.92668H7.32682C6.20118 7.92668 5.24029 8.32475 4.44414 9.1209C3.64798 9.91705 3.24989 10.8764 3.24989 11.9988C3.24989 13.1213 3.64637 14.0822 4.43932 14.8815C5.23227 15.6809 6.18836 16.0805 7.30759 16.0805H18.1345V17.2728H7.30759Z" />
    </symbol>

    <symbol viewBox="0 0 18 18" id="input-file-remove">
        <path d="M4.8002 13.9875L4.0127 13.2L8.2127 8.99998L4.0127 4.79998L4.8002 4.01248L9.0002 8.21248L13.2002 4.01248L13.9877 4.79998L9.7877 8.99998L13.9877 13.2L13.2002 13.9875L9.0002 9.78748L4.8002 13.9875Z" />
    </symbol>

    <symbol viewBox="0 0 24 24" id="icon-email">
        <path d="M4.3077 19.5C3.80257 19.5 3.375 19.325 3.025 18.975C2.675 18.625 2.5 18.1974 2.5 17.6922V6.3077C2.5 5.80257 2.675 5.375 3.025 5.025C3.375 4.675 3.80257 4.5 4.3077 4.5H19.6923C20.1974 4.5 20.625 4.675 20.975 5.025C21.325 5.375 21.5 5.80257 21.5 6.3077V17.6922C21.5 18.1974 21.325 18.625 20.975 18.975C20.625 19.325 20.1974 19.5 19.6923 19.5H4.3077ZM12 12.5576L3.99998 7.44225V17.6922C3.99998 17.782 4.02883 17.8557 4.08653 17.9134C4.14423 17.9711 4.21795 18 4.3077 18H19.6923C19.782 18 19.8557 17.9711 19.9134 17.9134C19.9711 17.8557 20 17.782 20 17.6922V7.44225L12 12.5576ZM12 11L19.8461 5.99997H4.15383L12 11ZM3.99998 7.44225V5.99997V17.6922C3.99998 17.782 4.02883 17.8557 4.08653 17.9134C4.14423 17.9711 4.21795 18 4.3077 18H3.99998V7.44225Z" />
    </symbol>

    <symbol viewBox="0 0 24 24" id="icon-url">
        <path d="M12 21.5C10.6974 21.5 9.46825 21.2503 8.3125 20.7509C7.15673 20.2516 6.14872 19.5718 5.28845 18.7115C4.4282 17.8512 3.7484 16.8432 3.24905 15.6875C2.74968 14.5317 2.5 13.3025 2.5 12C2.5 10.6872 2.74968 9.45543 3.24905 8.3048C3.7484 7.15417 4.4282 6.14872 5.28845 5.28845C6.14872 4.4282 7.15673 3.7484 8.3125 3.24905C9.46825 2.74968 10.6974 2.5 12 2.5C13.3128 2.5 14.5445 2.74968 15.6952 3.24905C16.8458 3.7484 17.8512 4.4282 18.7115 5.28845C19.5718 6.14872 20.2516 7.15417 20.7509 8.3048C21.2503 9.45543 21.5 10.6872 21.5 12C21.5 13.3025 21.2503 14.5317 20.7509 15.6875C20.2516 16.8432 19.5718 17.8512 18.7115 18.7115C17.8512 19.5718 16.8458 20.2516 15.6952 20.7509C14.5445 21.2503 13.3128 21.5 12 21.5ZM12 19.9788C12.5102 19.3019 12.9397 18.6192 13.2885 17.9307C13.6372 17.2423 13.9211 16.4897 14.1404 15.673H9.85958C10.0916 16.5153 10.3788 17.2807 10.7211 17.9692C11.0634 18.6577 11.4897 19.3275 12 19.9788ZM10.0635 19.7038C9.68014 19.1538 9.33591 18.5285 9.03078 17.8279C8.72564 17.1272 8.48846 16.4089 8.31922 15.673H4.92688C5.45509 16.7115 6.16343 17.584 7.0519 18.2904C7.94038 18.9968 8.94424 19.4679 10.0635 19.7038ZM13.9365 19.7038C15.0557 19.4679 16.0596 18.9968 16.9481 18.2904C17.8365 17.584 18.5449 16.7115 19.0731 15.673H15.6807C15.4794 16.4153 15.2262 17.1368 14.9211 17.8375C14.616 18.5381 14.2878 19.1602 13.9365 19.7038ZM4.29805 14.1731H8.01538C7.95256 13.8013 7.90705 13.4369 7.87885 13.0798C7.85065 12.7227 7.83655 12.3628 7.83655 12C7.83655 11.6372 7.85065 11.2772 7.87885 10.9202C7.90705 10.5631 7.95256 10.1987 8.01538 9.82688H4.29805C4.2019 10.1666 4.12818 10.5198 4.0769 10.8865C4.02562 11.2532 3.99998 11.6243 3.99998 12C3.99998 12.3756 4.02562 12.7468 4.0769 13.1135C4.12818 13.4801 4.2019 13.8333 4.29805 14.1731ZM9.51535 14.1731H14.4846C14.5474 13.8013 14.5929 13.4401 14.6212 13.0894C14.6494 12.7388 14.6635 12.3756 14.6635 12C14.6635 11.6243 14.6494 11.2612 14.6212 10.9106C14.5929 10.5599 14.5474 10.1987 14.4846 9.82688H9.51535C9.45253 10.1987 9.40702 10.5599 9.3788 10.9106C9.3506 11.2612 9.3365 11.6243 9.3365 12C9.3365 12.3756 9.3506 12.7388 9.3788 13.0894C9.40702 13.4401 9.45253 13.8013 9.51535 14.1731ZM15.9846 14.1731H19.7019C19.7981 13.8333 19.8718 13.4801 19.9231 13.1135C19.9743 12.7468 20 12.3756 20 12C20 11.6243 19.9743 11.2532 19.9231 10.8865C19.8718 10.5198 19.7981 10.1666 19.7019 9.82688H15.9846C16.0474 10.1987 16.0929 10.5631 16.1211 10.9202C16.1493 11.2772 16.1634 11.6372 16.1634 12C16.1634 12.3628 16.1493 12.7227 16.1211 13.0798C16.0929 13.4369 16.0474 13.8013 15.9846 14.1731ZM15.6807 8.32693H19.0731C18.5384 7.27563 17.8349 6.40318 16.9625 5.70958C16.09 5.01599 15.0814 4.54163 13.9365 4.2865C14.3198 4.86855 14.6608 5.50509 14.9596 6.19613C15.2583 6.88716 15.4987 7.59743 15.6807 8.32693ZM9.85958 8.32693H14.1404C13.9083 7.49102 13.6163 6.72083 13.2644 6.01632C12.9125 5.31184 12.491 4.64678 12 4.02113C11.5089 4.64678 11.0875 5.31184 10.7356 6.01632C10.3836 6.72083 10.0916 7.49102 9.85958 8.32693ZM4.92688 8.32693H8.31922C8.50128 7.59743 8.74167 6.88716 9.0404 6.19613C9.33912 5.50509 9.68014 4.86855 10.0635 4.2865C8.91219 4.54163 7.90193 5.0176 7.03268 5.7144C6.16344 6.4112 5.46151 7.28204 4.92688 8.32693Z" />
    </symbol>

    <symbol viewBox="0 0 24 24" id="icon-support">
        <path d="M11.3846 21.0006V19.5006H18.6923C18.782 19.5006 18.8557 19.4717 18.9134 19.4141C18.9711 19.3564 19 19.2826 19 19.1929V11.9775C19 11.0108 18.8166 10.1025 18.45 9.25249C18.0833 8.40249 17.5833 7.66082 16.95 7.02749C16.3166 6.39415 15.575 5.89415 14.725 5.52749C13.875 5.16082 12.9666 4.97749 12 4.97749C11.0333 4.97749 10.125 5.16082 9.27498 5.52749C8.42498 5.89415 7.68331 6.39415 7.04998 7.02749C6.41664 7.66082 5.91664 8.40249 5.54998 9.25249C5.18331 10.1025 4.99998 11.0108 4.99998 11.9775V18.039H4.25C3.7641 18.039 3.35096 17.8688 3.01058 17.5285C2.67019 17.1881 2.5 16.7749 2.5 16.289V14.289C2.5 13.957 2.59167 13.6564 2.775 13.3871C2.95833 13.1179 3.2 12.8916 3.5 12.7083L3.54618 11.3929C3.63848 10.2403 3.92821 9.18201 4.41538 8.21791C4.90256 7.25381 5.52948 6.42689 6.29615 5.73714C7.0628 5.0474 7.93587 4.50862 8.91538 4.12079C9.89486 3.73297 10.9231 3.53906 12 3.53906C13.0872 3.53906 14.1205 3.73137 15.1 4.11599C16.0795 4.5006 16.95 5.04035 17.7115 5.73521C18.473 6.4301 19.0974 7.25702 19.5846 8.21599C20.0717 9.17495 20.3615 10.2288 20.4538 11.3775L20.5 12.6679C20.8 12.8179 21.0416 13.0243 21.225 13.2871C21.4083 13.55 21.5 13.8339 21.5 14.139V16.439C21.5 16.7544 21.4083 17.041 21.225 17.2987C21.0416 17.5563 20.8 17.7602 20.5 17.9102V19.1929C20.5 19.6916 20.3233 20.1176 19.9701 20.4708C19.6169 20.824 19.191 21.0006 18.6923 21.0006H11.3846ZM9.1923 14.0775C8.94743 14.0775 8.73878 13.9913 8.56635 13.8188C8.39392 13.6464 8.3077 13.4378 8.3077 13.1929C8.3077 12.948 8.39392 12.7394 8.56635 12.5669C8.73878 12.3945 8.94743 12.3083 9.1923 12.3083C9.43717 12.3083 9.64582 12.3945 9.81825 12.5669C9.99068 12.7394 10.0769 12.948 10.0769 13.1929C10.0769 13.4378 9.99068 13.6464 9.81825 13.8188C9.64582 13.9913 9.43717 14.0775 9.1923 14.0775ZM14.8077 14.0775C14.5628 14.0775 14.3541 13.9913 14.1817 13.8188C14.0093 13.6464 13.923 13.4378 13.923 13.1929C13.923 12.948 14.0093 12.7394 14.1817 12.5669C14.3541 12.3945 14.5628 12.3083 14.8077 12.3083C15.0525 12.3083 15.2612 12.3945 15.4336 12.5669C15.606 12.7394 15.6923 12.948 15.6923 13.1929C15.6923 13.4378 15.606 13.6464 15.4336 13.8188C15.2612 13.9913 15.0525 14.0775 14.8077 14.0775ZM6.37115 12.4602C6.3109 11.5345 6.44039 10.6942 6.75962 9.93904C7.07884 9.1839 7.50992 8.5432 8.05288 8.01694C8.59583 7.49065 9.21986 7.08552 9.92498 6.80154C10.6301 6.51757 11.3384 6.37559 12.05 6.37559C13.4769 6.37559 14.7125 6.82751 15.7567 7.73136C16.8009 8.6352 17.4333 9.76211 17.6538 11.1121C16.1769 11.0954 14.842 10.6987 13.649 9.92174C12.4561 9.1448 11.5538 8.13647 10.9423 6.89674C10.6885 8.1698 10.1564 9.29672 9.34615 10.2775C8.53588 11.2583 7.54422 11.9858 6.37115 12.4602Z" />
    </symbol>

    <symbol viewBox="0 0 24 24" id="icon-address">
        <path d="M12 11.75C12.4859 11.75 12.899 11.5798 13.2394 11.2394C13.5798 10.899 13.75 10.4859 13.75 9.99997C13.75 9.51407 13.5798 9.10094 13.2394 8.76058C12.899 8.42019 12.4859 8.25 12 8.25C11.5141 8.25 11.1009 8.42019 10.7606 8.76058C10.4202 9.10094 10.25 9.51407 10.25 9.99997C10.25 10.4859 10.4202 10.899 10.7606 11.2394C11.1009 11.5798 11.5141 11.75 12 11.75ZM12 21.8077C9.39357 19.5436 7.45031 17.442 6.17017 15.5029C4.89006 13.5638 4.25 11.7961 4.25 10.2C4.25 7.77691 5.03012 5.84614 6.59037 4.40768C8.15062 2.96923 9.95382 2.25 12 2.25C14.0461 2.25 15.8493 2.96923 17.4096 4.40768C18.9698 5.84614 19.75 7.77691 19.75 10.2C19.75 11.7961 19.1099 13.5638 17.8298 15.5029C16.5496 17.442 14.6064 19.5436 12 21.8077Z" />
    </symbol>

    <symbol viewBox="0 0 24 24" id="icon-calendar">
        <path d="M10.95 17.9828L7.74615 14.7789L8.83075 13.6943L10.95 15.8136L15.1692 11.5943L16.2538 12.6789L10.95 17.9828ZM5.3077 21.4981C4.80257 21.4981 4.375 21.3231 4.025 20.9731C3.675 20.6231 3.5 20.1956 3.5 19.6904V6.30589C3.5 5.80075 3.675 5.37319 4.025 5.02319C4.375 4.67319 4.80257 4.49819 5.3077 4.49819H6.69233V2.38281H8.23075V4.49819H15.8077V2.38281H17.3076V4.49819H18.6923C19.1974 4.49819 19.625 4.67319 19.975 5.02319C20.325 5.37319 20.5 5.80075 20.5 6.30589V19.6904C20.5 20.1956 20.325 20.6231 19.975 20.9731C19.625 21.3231 19.1974 21.4981 18.6923 21.4981H5.3077ZM5.3077 19.9982H18.6923C18.7692 19.9982 18.8397 19.9661 18.9038 19.902C18.9679 19.8379 19 19.7674 19 19.6904V10.3059H4.99997V19.6904C4.99997 19.7674 5.03202 19.8379 5.09612 19.902C5.16024 19.9661 5.23077 19.9982 5.3077 19.9982ZM4.99997 8.80591H19V6.30589C19 6.22895 18.9679 6.15843 18.9038 6.09431C18.8397 6.03021 18.7692 5.99816 18.6923 5.99816H5.3077C5.23077 5.99816 5.16024 6.03021 5.09612 6.09431C5.03202 6.15843 4.99997 6.22895 4.99997 6.30589V8.80591Z" />
    </symbol>

    <symbol viewBox="0 0 16 16" id="pager-prev">
        <path fill-rule="evenodd" clip-rule="evenodd" d="M4.20503 7.52859C3.93166 7.78894 3.93166 8.21105 4.20503 8.4714L9.80502 13.8047C10.0784 14.0651 10.5216 14.0651 10.795 13.8047C11.0683 13.5444 11.0683 13.1223 10.795 12.8619L5.68995 8L10.795 3.13807C11.0683 2.87772 11.0683 2.45561 10.795 2.19526C10.5216 1.93491 10.0784 1.93491 9.80503 2.19526L4.20503 7.52859Z" />
    </symbol>

    <symbol viewBox="0 0 16 16" id="pager-next">
        <path fill-rule="evenodd" clip-rule="evenodd" d="M11.795 8.4714C12.0683 8.21105 12.0683 7.78895 11.795 7.5286L6.19498 2.19526C5.92161 1.93491 5.47839 1.93491 5.20503 2.19526C4.93166 2.45561 4.93166 2.87772 5.20503 3.13807L10.3101 8L5.20503 12.8619C4.93166 13.1223 4.93166 13.5444 5.20503 13.8047C5.47839 14.0651 5.92161 14.0651 6.19497 13.8047L11.795 8.4714Z" />
    </symbol>

    <symbol viewBox="0 0 24 24" id="automation-prev">
        <path d="M12 8.35582L8.35582 12L12 15.6442L13.0442 14.6L11.1942 12.75L15.75 12.75L15.75 11.25L11.1942 11.25L13.0442 9.40002L12 8.35582ZM11.9984 2.50005C13.3123 2.50005 14.5473 2.74938 15.7035 3.24805C16.8596 3.74672 17.8653 4.42346 18.7205 5.2783C19.5757 6.13315 20.2528 7.13839 20.7517 8.29402C21.2506 9.44964 21.5 10.6844 21.5 11.9983C21.5 13.3123 21.2507 14.5473 20.752 15.7034C20.2533 16.8596 19.5766 17.8653 18.7218 18.7205C17.8669 19.5757 16.8617 20.2528 15.706 20.7517C14.5504 21.2506 13.3156 21.5 12.0017 21.5C10.6878 21.5 9.45273 21.2507 8.2966 20.752C7.14045 20.2533 6.13477 19.5766 5.27955 18.7217C4.42431 17.8669 3.74726 16.8617 3.24837 15.706C2.74949 14.5504 2.50005 13.3156 2.50005 12.0017C2.50005 10.6878 2.74938 9.45273 3.24805 8.2966C3.74672 7.14045 4.42347 6.13476 5.2783 5.27955C6.13315 4.42431 7.13839 3.74726 8.29403 3.24837C9.44964 2.74949 10.6844 2.50005 11.9984 2.50005ZM12 4.00002C9.76669 4.00002 7.87502 4.77502 6.32502 6.32502C4.77502 7.87502 4.00002 9.76669 4.00002 12C4.00002 14.2334 4.77502 16.125 6.32502 17.675C7.87502 19.225 9.76669 20 12 20C14.2334 20 16.125 19.225 17.675 17.675C19.225 16.125 20 14.2334 20 12C20 9.76669 19.225 7.87502 17.675 6.32502C16.125 4.77502 14.2334 4.00002 12 4.00002Z" />
    </symbol>

    <symbol viewBox="0 0 24 24" id="automation-next">
        <path d="M12 15.6442L15.6442 12L12 8.35578L10.9558 9.39998L12.8058 11.25H8.25V12.75H12.8058L10.9558 14.6L12 15.6442ZM12.0016 21.5C10.6877 21.5 9.45268 21.2506 8.29655 20.752C7.1404 20.2533 6.13472 19.5765 5.2795 18.7217C4.42427 17.8669 3.74721 16.8616 3.24833 15.706C2.74944 14.5504 2.5 13.3156 2.5 12.0017C2.5 10.6877 2.74933 9.45268 3.248 8.29655C3.74667 7.1404 4.42342 6.13472 5.27825 5.2795C6.1331 4.42427 7.13834 3.74721 8.29398 3.24833C9.44959 2.74944 10.6844 2.5 11.9983 2.5C13.3122 2.5 14.5473 2.74933 15.7034 3.248C16.8596 3.74667 17.8652 4.42342 18.7205 5.27825C19.5757 6.1331 20.2527 7.13834 20.7516 8.29398C21.2505 9.44959 21.5 10.6844 21.5 11.9983C21.5 13.3122 21.2506 14.5473 20.752 15.7034C20.2533 16.8596 19.5765 17.8652 18.7217 18.7205C17.8669 19.5757 16.8616 20.2527 15.706 20.7516C14.5504 21.2505 13.3156 21.5 12.0016 21.5ZM12 20C14.2333 20 16.125 19.225 17.675 17.675C19.225 16.125 20 14.2333 20 12C20 9.76664 19.225 7.87498 17.675 6.32498C16.125 4.77498 14.2333 3.99997 12 3.99997C9.76664 3.99997 7.87498 4.77498 6.32498 6.32498C4.77498 7.87498 3.99998 9.76664 3.99998 12C3.99998 14.2333 4.77498 16.125 6.32498 17.675C7.87498 19.225 9.76664 20 12 20Z" />
    </symbol>

    <symbol viewBox="0 0 30 30" id="mobile-menu-link">
        <path d="M4.0625 22.0435V20.1686H25.9374V22.0435H4.0625ZM4.0625 15.9378V14.0628H25.9374V15.9378H4.0625ZM4.0625 9.832V7.95703H25.9374V9.832H4.0625Z" />
    </symbol>

    <symbol viewBox="0 0 24 24" id="mobile-menu-close">
        <path d="M6.4 19L5 17.6L10.6 12L5 6.4L6.4 5L12 10.6L17.6 5L19 6.4L13.4 12L19 17.6L17.6 19L12 13.4L6.4 19Z" />
    </symbol>

    <symbol viewBox="0 0 24 24" id="nav-mobile-sublink">
        <path d="M12 15.3746L6 9.37461L7.4 7.97461L12 12.5746L16.6 7.97461L18 9.37461L12 15.3746Z" />
    </symbol>

</svg>