<svg width="21" height="14" viewBox="0 0 21 14" fill="none" xmlns="http://www.w3.org/2000/svg">
<path d="M20.1966 2.19028C20.0821 1.76857 19.8592 1.38416 19.5501 1.07527C19.241 0.76638 18.8564 0.543763 18.4347 0.429544C16.8699 0 10.6119 0 10.6119 0C10.6119 0 4.35344 1.11721e-07 2.78912 0.411972C2.36752 0.532361 1.98397 0.759171 1.67535 1.0706C1.36672 1.38203 1.14339 1.76761 1.02682 2.19028C0.615234 3.75499 0.615234 6.99922 0.615234 6.99922C0.615234 6.99922 0.615234 10.2602 1.02682 11.8082C1.14133 12.2301 1.36422 12.6147 1.67337 12.9239C1.98253 13.233 2.36717 13.4559 2.78912 13.5705C4.37023 14 10.6119 14 10.6119 14C10.6119 14 16.8699 14 18.4347 13.588C18.8566 13.4736 19.2413 13.2507 19.5505 12.9416C19.8596 12.6324 20.0825 12.2477 20.197 11.8257C20.6085 10.2602 20.6085 7.01562 20.6085 7.01562C20.6085 7.01562 20.6249 3.75499 20.1966 2.19028Z" fill="white"/>
<path d="M8.62109 9.99448L13.8252 6.99704L8.62109 4V9.99448Z" fill="#002D62"/>
</svg>
