<svg width="20" height="16" viewBox="0 0 20 16" fill="none" xmlns="http://www.w3.org/2000/svg">
<path fill-rule="evenodd" clip-rule="evenodd" d="M1.63583 6.8879C6.81842 4.62993 10.2743 3.14134 12.0034 2.42212C16.9405 0.36862 17.9664 0.0119045 18.6351 0.00012559C18.7821 -0.00246506 19.111 0.0339819 19.324 0.206816C19.5038 0.352754 19.5533 0.549895 19.577 0.68826C19.6007 0.826626 19.6301 1.14183 19.6067 1.38811C19.3392 4.1992 18.1815 11.021 17.5926 14.1694C17.3434 15.5017 16.8527 15.9484 16.3776 15.9921C15.3452 16.0871 14.5613 15.3098 13.5614 14.6543C11.9967 13.6287 11.1127 12.9902 9.59394 11.9893C7.83872 10.8327 8.97656 10.1969 9.97686 9.15799C10.2386 8.88609 14.7874 4.74867 14.8754 4.37335C14.8864 4.32641 14.8966 4.15143 14.7927 4.05904C14.6887 3.96664 14.5353 3.99824 14.4246 4.02337C14.2677 4.05898 11.7681 5.71112 6.92583 8.97978C6.21633 9.46697 5.57369 9.70435 4.9979 9.69191C4.36314 9.6782 3.14212 9.33301 2.23441 9.03795C1.12108 8.67605 0.23622 8.48471 0.313271 7.87009C0.353404 7.54996 0.794256 7.22256 1.63583 6.8879Z" fill="white"/>
</svg>
