<svg width="100" height="100" viewBox="0 0 100 100" fill="none" xmlns="http://www.w3.org/2000/svg">
<mask id="mask0_268_3261" style="mask-type:alpha" maskUnits="userSpaceOnUse" x="0" y="0" width="100" height="100">
<rect width="100" height="100" fill="#D9D9D9"/>
</mask>
<g mask="url(#mask0_268_3261)">
<path d="M43.334 86.25L41.8757 74.5833C40.4173 74.1667 38.8027 73.4722 37.0319 72.5C35.2611 71.5278 33.7854 70.4861 32.6048 69.375L21.8757 73.9583L15.209 62.2917L24.4798 55.3125C24.3409 54.4792 24.2194 53.6111 24.1152 52.7083C24.0111 51.8056 23.959 50.9375 23.959 50.1042C23.959 49.3403 24.0111 48.5243 24.1152 47.6562C24.2194 46.7882 24.3409 45.7986 24.4798 44.6875L15.209 37.7083L21.8757 26.25L32.5007 30.7292C33.8895 29.5486 35.4 28.4896 37.0319 27.5521C38.6638 26.6146 40.2437 25.9028 41.7715 25.4167L43.334 13.75H56.6673L58.1256 25.5208C59.9312 26.1458 61.5111 26.8576 62.8652 27.6563C64.2194 28.4549 65.6256 29.4792 67.084 30.7292L78.1256 26.25L84.7923 37.7083L75.1048 45C75.3826 45.9722 75.5388 46.8576 75.5736 47.6562C75.6083 48.4549 75.6256 49.2361 75.6256 50C75.6256 50.6944 75.5909 51.441 75.5215 52.2396C75.452 53.0382 75.3131 54.0278 75.1048 55.2083L84.584 62.2917L77.9173 73.9583L67.084 69.2708C65.6256 70.5208 64.1673 71.5799 62.709 72.4479C61.2507 73.316 59.7229 73.9931 58.1256 74.4792L56.6673 86.25H43.334ZM49.7923 59.1667C52.3618 59.1667 54.5319 58.2813 56.3027 56.5104C58.0736 54.7396 58.959 52.5694 58.959 50C58.959 47.4306 58.0736 45.2604 56.3027 43.4896C54.5319 41.7188 52.3618 40.8333 49.7923 40.8333C47.2229 40.8333 45.0527 41.7188 43.2819 43.4896C41.5111 45.2604 40.6257 47.4306 40.6257 50C40.6257 52.5694 41.5111 54.7396 43.2819 56.5104C45.0527 58.2813 47.2229 59.1667 49.7923 59.1667ZM49.7923 56.25C48.0562 56.25 46.5805 55.6424 45.3652 54.4271C44.15 53.2118 43.5423 51.7361 43.5423 50C43.5423 48.2639 44.15 46.7882 45.3652 45.5729C46.5805 44.3576 48.0562 43.75 49.7923 43.75C51.5284 43.75 53.0041 44.3576 54.2194 45.5729C55.4347 46.7882 56.0423 48.2639 56.0423 50C56.0423 51.7361 55.4347 53.2118 54.2194 54.4271C53.0041 55.6424 51.5284 56.25 49.7923 56.25ZM45.834 83.3333H53.959L55.5215 71.9792C57.6048 71.4236 59.4625 70.6771 61.0944 69.7396C62.7263 68.8021 64.4451 67.4653 66.2506 65.7292L76.6673 70.2083L80.834 63.125L71.6673 56.25C72.0145 55 72.2402 53.8889 72.3444 52.9167C72.4486 51.9445 72.5006 50.9722 72.5006 50C72.5006 48.9583 72.4486 47.9861 72.3444 47.0833C72.2402 46.1806 72.0145 45.1389 71.6673 43.9583L81.0423 36.875L76.8756 29.7917L66.1465 34.2708C64.9659 32.9514 63.3166 31.6667 61.1986 30.4167C59.0805 29.1667 57.1534 28.3681 55.4173 28.0208L54.1673 16.6667H45.834L44.584 27.9167C42.5007 28.3333 40.5909 29.0278 38.8548 30C37.1187 30.9722 35.3479 32.3611 33.5423 34.1667L23.1257 29.7917L18.959 36.875L28.0215 43.6458C27.6743 44.5486 27.4312 45.5556 27.2923 46.6667C27.1534 47.7778 27.084 48.9236 27.084 50.1042C27.084 51.1458 27.1534 52.1875 27.2923 53.2292C27.4312 54.2708 27.6395 55.2778 27.9173 56.25L18.959 63.125L23.1257 70.2083L33.4382 65.8333C35.1048 67.5 36.8062 68.8194 38.5423 69.7917C40.2784 70.7639 42.2576 71.5278 44.4798 72.0833L45.834 83.3333Z" fill="#3473BD"/>
</g>
</svg>
