<svg width="100" height="101" viewBox="0 0 100 101" fill="none" xmlns="http://www.w3.org/2000/svg">
<mask id="mask0_268_3384" style="mask-type:alpha" maskUnits="userSpaceOnUse" x="0" y="0" width="100" height="101">
<rect y="0.5" width="100" height="100" fill="#D9D9D9"/>
</mask>
<g mask="url(#mask0_268_3384)">
<path d="M50.0026 90.9193C41.322 90.9193 33.5964 88.5234 26.8255 83.7318C20.0547 78.9401 15.1068 72.4818 11.9818 64.3568V74.6693H9.0651V59.2526H24.4818V62.1693H14.3776C16.8776 69.947 21.4262 76.197 28.0234 80.9193C34.6207 85.6415 41.947 88.0026 50.0026 88.0026C54.9332 88.0026 59.5686 87.1346 63.9089 85.3984C68.2491 83.6623 72.0859 81.2491 75.4193 78.1589C78.7526 75.0686 81.4783 71.388 83.5964 67.1172C85.7144 62.8464 86.9818 58.2109 87.3984 53.2109H90.3151C89.9679 58.4887 88.6658 63.4193 86.4089 68.0026C84.1519 72.5859 81.2352 76.579 77.6589 79.9818C74.0825 83.3845 69.9158 86.0582 65.1589 88.0026C60.4019 89.9471 55.3498 90.9193 50.0026 90.9193ZM31.6693 17.7943L30.0026 15.2943C32.9887 13.5582 36.1658 12.2561 39.5339 11.388C42.9019 10.52 46.3915 10.0859 50.0026 10.0859C58.4748 10.0859 66.2005 12.4991 73.1797 17.3255C80.1589 22.1519 85.1068 28.7318 88.0234 37.0651V26.3359H90.9401V41.7526H75.5234V38.8359H85.6276C83.3359 31.3359 78.8741 25.1554 72.2422 20.2943C65.6102 15.4332 58.197 13.0026 50.0026 13.0026C46.6693 13.0026 43.4748 13.4019 40.4193 14.2005C37.3637 14.9991 34.447 16.197 31.6693 17.7943ZM16.6693 44.0443L13.5443 36.9609L6.46094 33.8359L13.5443 30.7109L16.6693 23.6276L19.7943 30.7109L26.8776 33.8359L19.7943 36.9609L16.6693 44.0443ZM34.4818 67.1693L49.2734 29.6693H50.7318L65.7318 67.1693H62.3984L57.8151 55.9193H42.1901L37.6068 67.1693H34.4818ZM43.2318 53.2109H56.7734L50.1068 36.1276H49.6901L43.2318 53.2109Z" fill="#3473BD"/>
</g>
</svg>
