<svg width="100" height="101" viewBox="0 0 100 101" fill="none" xmlns="http://www.w3.org/2000/svg">
<mask id="mask0_268_3343" style="mask-type:alpha" maskUnits="userSpaceOnUse" x="0" y="0" width="100" height="101">
<rect y="0.5" width="100" height="100" fill="#3473BD"/>
</mask>
<g mask="url(#mask0_268_3343)">
<path d="M50.0033 86.7448C45.4199 83.2031 40.4199 80.3733 35.0033 78.2552C29.5866 76.1371 23.8921 74.8003 17.9199 74.2448V37.3698C24.1005 37.8559 29.9512 39.4531 35.472 42.1615C40.9928 44.8698 45.8366 48.0642 50.0033 51.7448C54.1699 48.0642 59.0137 44.8698 64.5345 42.1615C70.0553 39.4531 75.906 37.8559 82.0866 37.3698V74.2448C76.1144 74.8003 70.4199 76.1371 65.0033 78.2552C59.5866 80.3733 54.5866 83.2031 50.0033 86.7448ZM50.0033 83.2031C54.3783 80.0087 59.031 77.4243 63.9616 75.4499C68.8921 73.4755 73.9616 72.171 79.1699 71.5365V40.7031C73.6144 41.6059 68.354 43.342 63.3887 45.9115C58.4234 48.4809 53.9616 51.7448 50.0033 55.7031C46.0449 51.7448 41.5831 48.4809 36.6178 45.9115C31.6526 43.342 26.3921 41.6059 20.8366 40.7031V71.5365C26.0449 72.171 31.1144 73.4755 36.0449 75.4499C40.9755 77.4243 45.6283 80.0087 50.0033 83.2031ZM50.0033 35.7031C46.5658 35.7031 43.6231 34.4792 41.1751 32.0312C38.7272 29.5833 37.5033 26.6406 37.5033 23.2031C37.5033 19.7656 38.7272 16.8229 41.1751 14.375C43.6231 11.9271 46.5658 10.7031 50.0033 10.7031C53.4408 10.7031 56.3835 11.9271 58.8314 14.375C61.2793 16.8229 62.5033 19.7656 62.5033 23.2031C62.5033 26.6406 61.2793 29.5833 58.8314 32.0312C56.3835 34.4792 53.4408 35.7031 50.0033 35.7031ZM50.0069 32.7865C52.6434 32.7865 54.8991 31.8477 56.7741 29.9703C58.6491 28.0928 59.5866 25.8359 59.5866 23.1995C59.5866 20.563 58.6479 18.3073 56.7705 16.4323C54.893 14.5573 52.636 13.6198 49.9996 13.6198C47.3632 13.6198 45.1074 14.5585 43.2324 16.4359C41.3574 18.3134 40.4199 20.5704 40.4199 23.2068C40.4199 25.8432 41.3586 28.099 43.2361 29.974C45.1136 31.849 47.3705 32.7865 50.0069 32.7865Z" fill="#3473BD"/>
</g>
</svg>
