<svg width="100" height="100" viewBox="0 0 100 100" fill="none" xmlns="http://www.w3.org/2000/svg">
<mask id="mask0_268_3237" style="mask-type:alpha" maskUnits="userSpaceOnUse" x="0" y="0" width="100" height="100">
<rect width="100" height="100" fill="#D9D9D9"/>
</mask>
<g mask="url(#mask0_268_3237)">
<path d="M24.166 82.082C22.4299 82.082 20.9542 81.4744 19.7389 80.2591C18.5237 79.0438 17.916 77.5682 17.916 75.832V24.1654C17.916 22.4293 18.5237 20.9536 19.7389 19.7383C20.9542 18.523 22.4299 17.9154 24.166 17.9154H44.3743C43.6105 15.9015 43.8188 14.0091 44.9993 12.2383C46.1799 10.4674 47.8466 9.58203 49.9993 9.58203C52.2216 9.58203 53.923 10.4674 55.1035 12.2383C56.2841 14.0091 56.4577 15.9015 55.6243 17.9154H75.8327C77.5688 17.9154 79.0445 18.523 80.2598 19.7383C81.475 20.9536 82.0827 22.4293 82.0827 24.1654V75.832C82.0827 77.5682 81.475 79.0438 80.2598 80.2591C79.0445 81.4744 77.5688 82.082 75.8327 82.082H24.166ZM24.166 79.1654H75.8327C76.666 79.1654 77.4299 78.8182 78.1243 78.1237C78.8188 77.4293 79.166 76.6654 79.166 75.832V24.1654C79.166 23.332 78.8188 22.5681 78.1243 21.8737C77.4299 21.1793 76.666 20.832 75.8327 20.832H24.166C23.3327 20.832 22.5688 21.1793 21.8743 21.8737C21.1799 22.5681 20.8327 23.332 20.8327 24.1654V75.832C20.8327 76.6654 21.1799 77.4293 21.8743 78.1237C22.5688 78.8182 23.3327 79.1654 24.166 79.1654ZM31.8743 66.8737H55.6243V63.957H31.8743V66.8737ZM31.8743 51.457H68.1243V48.5404H31.8743V51.457ZM31.8743 36.0404H68.1243V33.1237H31.8743V36.0404ZM49.9993 18.7487C50.9021 18.7487 51.6487 18.4536 52.2389 17.8633C52.8292 17.273 53.1243 16.5265 53.1243 15.6237C53.1243 14.7209 52.8292 13.9744 52.2389 13.3841C51.6487 12.7938 50.9021 12.4987 49.9993 12.4987C49.0966 12.4987 48.35 12.7938 47.7598 13.3841C47.1695 13.9744 46.8743 14.7209 46.8743 15.6237C46.8743 16.5265 47.1695 17.273 47.7598 17.8633C48.35 18.4536 49.0966 18.7487 49.9993 18.7487Z" fill="#3473BD"/>
</g>
</svg>
