<svg width="100" height="101" viewBox="0 0 100 101" fill="none" xmlns="http://www.w3.org/2000/svg">
<mask id="mask0_268_3195" style="mask-type:alpha" maskUnits="userSpaceOnUse" x="0" y="0" width="100" height="101">
<rect y="0.5" width="100" height="100" fill="#D9D9D9"/>
</mask>
<g mask="url(#mask0_268_3195)">
<path d="M37.4993 82.5833H20.8327C20.0306 82.5833 19.344 82.2977 18.7728 81.7266C18.2016 81.1554 17.916 80.4688 17.916 79.6667V63C19.9993 62.0972 21.7007 60.7083 23.0202 58.8333C24.3396 56.9583 24.9993 54.875 24.9993 52.5833C24.9993 50.2917 24.3396 48.2083 23.0202 46.3333C21.7007 44.4583 19.9993 43.0694 17.916 42.1667V25.5C17.916 24.6979 18.2016 24.0113 18.7728 23.4401C19.344 22.8689 20.0306 22.5833 20.8327 22.5833H37.4993C38.4716 20.3611 39.8778 18.625 41.7181 17.375C43.5584 16.125 45.6243 15.5 47.916 15.5C50.2077 15.5 52.2737 16.125 54.1139 17.375C55.9542 18.625 57.3605 20.3611 58.3327 22.5833H74.9993C75.8014 22.5833 76.4881 22.8689 77.0592 23.4401C77.6304 24.0113 77.916 24.6979 77.916 25.5V42.1667C80.1382 43.1389 81.8743 44.5451 83.1244 46.3854C84.3744 48.2257 84.9994 50.2917 84.9994 52.5833C84.9994 54.875 84.3744 56.941 83.1244 58.7812C81.8743 60.6215 80.1382 62.0278 77.916 63V79.6667C77.916 80.4688 77.6304 81.1554 77.0592 81.7266C76.4881 82.2977 75.8014 82.5833 74.9993 82.5833H58.3327C57.3605 80.3611 55.9368 78.625 54.0618 77.375C52.1868 76.125 50.1382 75.5 47.916 75.5C45.6938 75.5 43.6452 76.125 41.7702 77.375C39.8952 78.625 38.4716 80.3611 37.4993 82.5833ZM20.8327 79.6667H36.041C37.0827 77.4444 38.6625 75.7083 40.7806 74.4583C42.8987 73.2083 45.2771 72.5833 47.916 72.5833C50.5549 72.5833 52.9334 73.2083 55.0514 74.4583C57.1695 75.7083 58.7493 77.4444 59.791 79.6667H74.9993V60.7083C77.4299 60.2917 79.2181 59.2847 80.3639 57.6875C81.5098 56.0903 82.0827 54.3889 82.0827 52.5833C82.0827 50.7778 81.5098 49.0764 80.3639 47.4792C79.2181 45.8819 77.4299 44.875 74.9993 44.4583V25.5H56.041C55.6244 23.0694 54.6174 21.2812 53.0202 20.1354C51.423 18.9896 49.7216 18.4167 47.916 18.4167C46.1105 18.4167 44.4091 18.9896 42.8118 20.1354C41.2146 21.2812 40.2077 23.0694 39.791 25.5H20.8327V40.5C23.0549 41.6806 24.791 43.3646 26.041 45.5521C27.291 47.7396 27.916 50.0942 27.916 52.6159C27.916 55.0942 27.291 57.4271 26.041 59.6146C24.791 61.8021 23.0549 63.4861 20.8327 64.6667V79.6667Z" fill="#3473BD"/>
</g>
</svg>
