<svg width="100" height="100" viewBox="0 0 100 100" fill="none" xmlns="http://www.w3.org/2000/svg">
<mask id="mask0_268_3225" style="mask-type:alpha" maskUnits="userSpaceOnUse" x="0" y="0" width="100" height="100">
<rect width="100" height="100" fill="#D9D9D9"/>
</mask>
<g mask="url(#mask0_268_3225)">
<path d="M66.6667 44.5833C67.4306 44.5833 68.1076 44.2882 68.6979 43.6979C69.2882 43.1076 69.5833 42.4306 69.5833 41.6667C69.5833 40.9028 69.2882 40.2257 68.6979 39.6354C68.1076 39.0451 67.4306 38.75 66.6667 38.75C65.9028 38.75 65.2257 39.0451 64.6354 39.6354C64.0451 40.2257 63.75 40.9028 63.75 41.6667C63.75 42.4306 64.0451 43.1076 64.6354 43.6979C65.2257 44.2882 65.9028 44.5833 66.6667 44.5833ZM33.3333 34.7917H54.1667V31.875H33.3333V34.7917ZM22.8125 82.0833C20.8681 75 18.8715 67.9861 16.8229 61.0417C14.7743 54.0972 13.75 46.9444 13.75 39.5833C13.75 34.7222 15.4514 30.5903 18.8542 27.1875C22.2569 23.7847 26.3889 22.0833 31.25 22.0833H54.7917C56.5278 19.7917 58.559 17.8299 60.8854 16.1979C63.2118 14.566 65.8333 13.75 68.75 13.75C68.9583 13.75 69.1493 13.8368 69.3229 14.0104C69.4965 14.184 69.5833 14.375 69.5833 14.5833C69.5833 14.6528 69.566 14.7222 69.5313 14.7917C69.4965 14.8611 69.4792 14.9306 69.4792 15C68.9236 16.3889 68.4896 17.8125 68.1771 19.2708C67.8646 20.7292 67.5695 22.1875 67.2917 23.6458L80.3125 36.6667H86.25V56.3542L75.5208 59.8958L68.8542 82.0833H55.4167V73.75H36.25V82.0833H22.8125ZM25 79.1667H33.3333V70.8333H58.3333V79.1667H66.6667L73.125 57.7083L83.3333 54.2708V39.5833H79.1667L64.5833 25C64.5833 23.6111 64.6701 22.2743 64.8438 20.9896C65.0174 19.7049 65.3472 18.4375 65.8333 17.1875C63.8194 17.7431 62.0833 18.7326 60.625 20.1562C59.1667 21.5799 57.9514 23.1944 56.9792 25H31.25C27.2222 25 23.7847 26.4236 20.9375 29.2708C18.0903 32.1181 16.6667 35.5556 16.6667 39.5833C16.6667 46.3889 17.6042 53.0382 19.4792 59.5312C21.3542 66.0243 23.1944 72.5694 25 79.1667Z" fill="#3473BD"/>
</g>
</svg>
