<svg width="100" height="100" viewBox="0 0 100 100" fill="none" xmlns="http://www.w3.org/2000/svg">
<mask id="mask0_268_3178" style="mask-type:alpha" maskUnits="userSpaceOnUse" x="0" y="0" width="100" height="100">
<rect width="100" height="100" fill="#D9D9D9"/>
</mask>
<g mask="url(#mask0_268_3178)">
<path d="M66.4583 45.8346V33.3346H53.9583V30.418H66.4583V17.918H69.375V30.418H81.875V33.3346H69.375V45.8346H66.4583ZM77.5 81.4596C70.7639 81.4596 63.8715 79.6541 56.8229 76.043C49.7743 72.4319 43.3854 67.7617 37.6562 62.0326C31.9271 56.3034 27.2396 49.9319 23.5938 42.918C19.9479 35.9041 18.125 29.0291 18.125 22.293C18.125 21.043 18.5417 20.0013 19.375 19.168C20.2083 18.3346 21.25 17.918 22.5 17.918H30.8333C32.0833 17.918 33.1424 18.2826 34.0104 19.0117C34.8785 19.7409 35.4514 20.6957 35.7292 21.8763L37.6042 30.418C37.8125 31.5291 37.7951 32.536 37.5521 33.4388C37.309 34.3416 36.8056 35.1055 36.0417 35.7305L27.2917 43.7513C31.1806 50.2791 35.5208 55.9041 40.3125 60.6263C45.1042 65.3485 50.7639 69.5152 57.2917 73.1263L65.8333 64.168C66.5972 63.4041 67.3785 62.9006 68.1771 62.6576C68.9757 62.4145 69.8611 62.3971 70.8333 62.6055L77.9167 64.0638C79.0972 64.3416 80.0521 64.9145 80.7812 65.7826C81.5104 66.6506 81.875 67.7096 81.875 68.9596V77.0846C81.875 78.3346 81.4583 79.3763 80.625 80.2096C79.7917 81.043 78.75 81.4596 77.5 81.4596ZM25.8333 41.043L34.1667 33.543C34.5139 33.2652 34.7396 32.8832 34.8438 32.3971C34.9479 31.911 34.9306 31.4596 34.7917 31.043L32.9167 22.5013C32.7778 21.9457 32.5347 21.5291 32.1875 21.2513C31.8403 20.9735 31.3889 20.8346 30.8333 20.8346H22.5C22.0833 20.8346 21.7361 20.9735 21.4583 21.2513C21.1806 21.5291 21.0417 21.8763 21.0417 22.293C21.0417 25.1402 21.4757 28.161 22.3438 31.3555C23.2118 34.5499 24.375 37.7791 25.8333 41.043ZM60 74.3763C62.8472 75.8346 65.9201 76.8937 69.2187 77.5534C72.5174 78.2131 75.2778 78.543 77.5 78.543C77.9167 78.543 78.2639 78.4041 78.5417 78.1263C78.8194 77.8485 78.9583 77.5013 78.9583 77.0846V68.9596C78.9583 68.4041 78.8194 67.9527 78.5417 67.6055C78.2639 67.2583 77.8472 67.0152 77.2917 66.8763L70.2083 65.418C69.7917 65.2791 69.4271 65.2617 69.1146 65.3659C68.8021 65.4701 68.4722 65.6958 68.125 66.043L60 74.3763Z" fill="#3473BD"/>
</g>
</svg>
