<svg width="100" height="101" viewBox="0 0 100 101" fill="none" xmlns="http://www.w3.org/2000/svg">
<mask id="mask0_268_3319" style="mask-type:alpha" maskUnits="userSpaceOnUse" x="0" y="0" width="100" height="101">
<rect y="0.5" width="100" height="100" fill="#D9D9D9"/>
</mask>
<g mask="url(#mask0_268_3319)">
<path d="M45.5215 57.681L65.3132 37.9935L63.2298 35.9102L45.5215 53.6185L36.6673 44.7643L34.584 46.8477L45.5215 57.681ZM8.33398 79.6602V76.7435H91.6673V79.6602H8.33398ZM20.0007 72.5768C18.1951 72.5768 16.702 71.9865 15.5215 70.806C14.3409 69.6254 13.7507 68.1324 13.7507 66.3268V27.1602C13.7507 25.3546 14.3409 23.8615 15.5215 22.681C16.702 21.5004 18.1951 20.9102 20.0007 20.9102H80.0007C81.8062 20.9102 83.2993 21.5004 84.4798 22.681C85.6604 23.8615 86.2507 25.3546 86.2507 27.1602V66.3268C86.2507 68.1324 85.6604 69.6254 84.4798 70.806C83.2993 71.9865 81.8062 72.5768 80.0007 72.5768H20.0007ZM20.0007 69.6602H80.0007C80.834 69.6602 81.5979 69.3129 82.2923 68.6185C82.9868 67.924 83.334 67.1602 83.334 66.3268V27.1602C83.334 26.3268 82.9868 25.5629 82.2923 24.8685C81.5979 24.174 80.834 23.8268 80.0007 23.8268H20.0007C19.1673 23.8268 18.4034 24.174 17.709 24.8685C17.0145 25.5629 16.6673 26.3268 16.6673 27.1602V66.3268C16.6673 67.1602 17.0145 67.924 17.709 68.6185C18.4034 69.3129 19.1673 69.6602 20.0007 69.6602Z" fill="#3473BD"/>
</g>
</svg>
