<svg width="100" height="100" viewBox="0 0 100 100" fill="none" xmlns="http://www.w3.org/2000/svg">
<mask id="mask0_268_3207" style="mask-type:alpha" maskUnits="userSpaceOnUse" x="0" y="0" width="100" height="100">
<rect width="100" height="100" fill="#D9D9D9"/>
</mask>
<g mask="url(#mask0_268_3207)">
<path d="M49.9502 86.25C44.9534 86.25 40.2576 85.2951 35.8629 83.3854C31.4682 81.4757 27.637 78.8914 24.3695 75.6324C21.102 72.3735 18.5152 68.5413 16.6091 64.1356C14.703 59.7301 13.75 55.0227 13.75 50.0136C13.75 45.0045 14.7016 40.2931 16.6047 35.8794C18.5078 31.4656 21.0906 27.6262 24.3531 24.3613C27.6156 21.0963 31.4521 18.5115 35.8625 16.6069C40.2729 14.7023 44.9854 13.75 50 13.75C54.1897 13.75 58.1538 14.4097 61.8923 15.7292C65.6308 17.0486 69.0278 18.8889 72.0833 21.25L70 23.4375C67.2222 21.2847 64.1397 19.6181 60.7525 18.4375C57.3653 17.2569 53.7811 16.6667 50 16.6667C40.7639 16.6667 32.8993 19.9132 26.4063 26.4063C19.9132 32.8993 16.6667 40.7639 16.6667 50C16.6667 59.2361 19.9132 67.1007 26.4063 73.5938C32.8993 80.0868 40.7639 83.3333 50 83.3333C52.5 83.3333 54.9306 83.0556 57.2917 82.5C59.6528 81.9445 61.9097 81.1806 64.0625 80.2083L66.25 82.3958C63.8194 83.6458 61.2326 84.6007 58.4896 85.2604C55.7465 85.9201 52.9001 86.25 49.9502 86.25ZM81.875 80.625V68.125H69.375V65.2083H81.875V52.7083H84.7917V65.2083H97.2917V68.125H84.7917V80.625H81.875ZM43.9583 65.4167L30 51.4583L32.0833 49.375L43.9583 61.25L84.1667 21.0417L86.25 23.125L43.9583 65.4167Z" fill="#3473BD"/>
</g>
</svg>
