<svg width="100" height="101" viewBox="0 0 100 101" fill="none" xmlns="http://www.w3.org/2000/svg">
<mask id="mask0_268_3406" style="mask-type:alpha" maskUnits="userSpaceOnUse" x="0" y="0" width="100" height="101">
<rect x="0.5" y="1" width="99" height="99" fill="#D9D9D9" stroke="#47D5C1"/>
</mask>
<g mask="url(#mask0_268_3406)">
<path d="M21.0328 48.7235L21.0197 48.7367L21.0368 48.7439L31.8701 53.3272L31.8809 53.3318L31.8862 53.3213C33.2749 50.5439 34.8024 47.8533 36.4689 45.2495C38.1353 42.6458 39.9752 40.1289 41.9888 37.6987L42.0023 37.6824L41.9815 37.6784L35.4197 36.4286C35.4196 36.4286 35.4195 36.4285 35.4194 36.4285C34.8617 36.2891 34.3212 36.3066 33.7981 36.4809C33.2753 36.6552 32.8049 36.9514 32.387 37.3694L21.0328 48.7235ZM34.1554 55.1854L34.1516 55.1933L34.1578 55.1996L45.9287 66.9704L45.9349 66.9766L45.9428 66.9729C49.3463 65.3753 52.7149 63.4305 56.0488 61.1385C59.3828 58.8464 62.6125 56.1375 65.738 53.012C70.1139 48.6362 73.4308 44.0343 75.6884 39.2064C77.9462 34.3782 79.318 28.387 79.8041 21.2332L79.8051 21.2189L79.7908 21.2199C72.637 21.7061 66.6632 23.0779 61.8697 25.3356C57.0765 27.5933 52.492 30.9102 48.1162 35.286C44.9907 38.4115 42.2818 41.6587 39.9897 45.0274C37.6977 48.396 35.7529 51.782 34.1554 55.1854ZM52.2802 80.0914L52.2874 80.1085L52.3005 80.0954L63.6547 68.7412C64.0726 68.3233 64.3688 67.8529 64.5431 67.3301C64.7175 66.807 64.7349 66.2665 64.5956 65.7089C64.5955 65.7087 64.5955 65.7086 64.5955 65.7085L63.3456 59.1467L63.3417 59.1259L63.3254 59.1394C60.8952 61.153 58.3782 62.993 55.7745 64.6593C53.1707 66.3258 50.4801 67.8533 47.7027 69.242L47.6923 69.2473L47.6968 69.2581L52.2802 80.0914ZM51.2543 85.0647L44.9073 70.0817L44.9083 70.0813L44.9047 70.0777L30.9463 56.1194L30.947 56.1187L30.9424 56.1167L15.9594 49.6657L30.3213 35.3037C31.0839 34.5411 31.9503 34.004 32.9205 33.6922C33.8906 33.3804 34.8954 33.3284 35.9351 33.5363L44.1642 35.203L44.1622 35.2129L44.1755 35.1995C44.5229 34.8522 44.8182 34.5395 45.0615 34.2614C45.3043 33.9839 45.5993 33.6716 45.9463 33.3245C51.0148 28.2561 56.5343 24.4724 62.5048 21.9731C68.472 19.4752 75.1677 18.3295 82.592 18.5362C82.7987 25.9605 81.6357 32.6561 79.1031 38.6233C76.5691 44.5939 72.7679 50.1134 67.6995 55.1819L65.8245 57.0569L65.8175 57.0499L65.8211 57.0681L67.3836 65.0889L67.3836 65.089C67.5915 66.1288 67.5569 67.1337 67.2797 68.1039C67.0025 69.074 66.4828 69.9402 65.7204 70.7027C65.7204 70.7027 65.7203 70.7027 65.7203 70.7027L51.2543 85.0647ZM21.2376 79.8769L21.2359 79.8923L21.2513 79.8906C23.1969 79.6822 25.073 79.2132 26.8797 78.4836C28.6859 77.7541 30.0071 76.9721 30.8422 76.1371C31.6778 75.3014 32.0958 74.3087 32.0958 73.1595C32.0958 72.0102 31.6778 71.0175 30.8422 70.1819C30.0065 69.3462 29.0136 68.9455 27.8642 68.9803C26.7151 69.0151 25.7225 69.4505 24.887 70.286C24.0519 71.1212 23.2872 72.4425 22.5925 74.2487C21.8977 76.0553 21.446 77.9314 21.2376 79.8769ZM56.6755 44.3485C55.5667 43.2397 55.0125 41.9234 55.0125 40.399C55.0125 38.8747 55.5667 37.5584 56.6755 36.4495C57.7843 35.3408 59.1179 34.7865 60.6771 34.7865C62.2363 34.7865 63.5699 35.3408 64.6787 36.4495C65.7875 37.5584 66.3417 38.8747 66.3417 40.399C66.3417 41.9234 65.7875 43.2397 64.6787 44.3485C63.5699 45.4573 62.2363 46.0115 60.6771 46.0115C59.1179 46.0115 57.7843 45.4573 56.6755 44.3485ZM22.8213 68.1162C24.2078 66.7297 25.8886 66.054 27.8644 66.0886C29.8403 66.1233 31.5213 66.8338 32.9078 68.2204C34.2944 69.6069 34.9875 71.2878 34.9875 73.2636C34.9875 75.2395 34.2944 76.9203 32.9078 78.3069C31.5904 79.6243 29.5091 80.752 26.6628 81.6893C23.8208 82.625 20.8058 83.1974 17.6176 83.4065C17.8267 80.2183 18.4164 77.2033 19.3868 74.3614C20.3588 71.515 21.5038 69.4337 22.8213 68.1162Z" fill="#47D5C1" stroke="#47D5C1" stroke-width="0.025"/>
</g>
</svg>
