<svg width="80" height="80" viewBox="0 0 80 80" fill="none" xmlns="http://www.w3.org/2000/svg">
<path d="M66.3168 75.4754H14.0801V5.12012H54.5216L66.3168 16.9154V75.4754ZM16.5696 72.9857H63.8273V17.9457L53.4912 7.60973H16.5696V72.9857Z" fill="white"/>
<path d="M65.0689 18.688H52.7617V6.38086H55.2449V16.1984H65.0689V18.688Z" fill="white"/>
<path d="M57.7473 62.1827H22.6816V52.8643H57.7793L57.7473 62.1827ZM25.1073 59.6931H55.2321V55.3539H25.1073V59.6931Z" fill="white"/>
<path d="M57.7473 55.354H22.6816V46.042H57.7793L57.7473 55.354ZM25.1073 52.8644H55.2321V48.5316H25.1073V52.8644Z" fill="white"/>
<path d="M57.7473 48.5317H22.6816V39.2197H57.7793L57.7473 48.5317ZM25.1073 46.0421H55.2321V41.7029H25.1073V46.0421Z" fill="white"/>
<path d="M57.7473 41.7027H22.6816V32.3906H57.7793L57.7473 41.7027ZM25.1073 39.2195H55.2321V34.8802H25.1073V39.2195Z" fill="white"/>
<path d="M57.7473 34.8801H22.6816V25.6001H57.7793L57.7473 34.8801ZM25.1073 32.3905H55.2321V28.0577H25.1073V32.3905Z" fill="white"/>
<path d="M48.3529 32.3906H45.8633V62.1762H48.3529V32.3906Z" fill="white"/>
<path d="M34.4968 16.1982H22.6504V18.6879H34.4968V16.1982Z" fill="white"/>
<path d="M48.2568 20.8384H22.6504V23.328H48.2568V20.8384Z" fill="white"/>
<path d="M57.7487 64.4229H45.9023V66.9125H57.7487V64.4229Z" fill="white"/>
</svg>
