<svg width="80" height="80" viewBox="0 0 80 80" fill="none" xmlns="http://www.w3.org/2000/svg">
<path d="M63.6182 65.3824L54.959 56.7296L55.8421 55.8464C57.9091 53.793 59.5478 51.3496 60.6629 48.6579C61.778 45.9662 62.3475 43.0799 62.3382 40.1664V38.9248H74.5685V40.1664C74.5787 44.6845 73.6938 49.1599 71.9648 53.3341C70.2358 57.5084 67.6969 61.2987 64.4949 64.4864L63.6182 65.3824ZM58.4662 56.7104L63.5862 61.8304C68.7674 56.2548 71.7705 49.0016 72.047 41.3952H64.783C64.524 47.0798 62.29 52.4961 58.4662 56.7104Z" fill="white"/>
<path d="M30.5359 20.1599L25.8574 8.86385L27.003 8.39025C31.1695 6.64348 35.6435 5.74909 40.1613 5.75986H41.403V17.9903H40.1613C37.2511 17.9909 34.3696 18.5651 31.6813 19.6799L30.5359 20.1599ZM29.1151 10.227L31.8926 16.9342C34.1581 16.1255 36.53 15.6533 38.9326 15.5326V8.26865C35.5762 8.39086 32.2614 9.0521 29.1151 10.227Z" fill="white"/>
<path d="M56.3418 9.79199L47.209 18.9248V19.1424C48.0099 19.4115 48.7943 19.7278 49.5579 20.0896L58.5626 11.0848C57.8394 10.624 57.097 10.1952 56.3418 9.79199Z" fill="white"/>
<path d="M47.209 12.7036V16.2236L54.5307 8.89562C53.7179 8.52442 52.8922 8.17883 52.041 7.86523L47.209 12.7036Z" fill="white"/>
<path d="M63.6054 14.9629L54.959 23.6413C55.5803 24.1922 56.168 24.78 56.719 25.4013L65.3974 16.7229C64.8022 16.1149 64.2134 15.5261 63.6054 14.9629Z" fill="white"/>
<path d="M69.2445 21.7852L60.2461 30.7452C60.6089 31.5135 60.9273 32.302 61.1997 33.1068H61.4045L70.5373 23.9739C70.1341 23.2315 69.6797 22.4892 69.2445 21.7852Z" fill="white"/>
<path d="M70.3184 33.1196H73.832C73.6314 32.1724 73.3946 31.238 73.1215 30.3164L70.3184 33.1196Z" fill="white"/>
<path d="M62.1658 13.7025C61.5258 13.1649 60.8857 12.6593 60.1817 12.1729L51.3242 21.0241C52.0556 21.4509 52.7609 21.9211 53.4362 22.4321L62.1658 13.7025Z" fill="white"/>
<path d="M72.4575 28.2884C72.1503 27.4372 71.8174 26.6116 71.4334 25.7988L64.1055 33.1204H67.6255L72.4575 28.2884Z" fill="white"/>
<path d="M50.0123 7.2002C49.0907 6.925 48.1562 6.6818 47.209 6.4834V10.0034L50.0123 7.2002Z" fill="white"/>
<path d="M68.1571 20.1471C67.6707 19.4687 67.1586 18.8031 66.6274 18.1631L57.9043 26.9055C58.4096 27.5834 58.8775 28.2885 59.3059 29.0175L68.1571 20.1471Z" fill="white"/>
<path d="M40.1619 74.5791C32.9453 74.5768 25.9121 72.306 20.0568 68.0875C14.2015 63.869 9.82048 57.9165 7.53349 51.0718C5.2465 44.2272 5.16921 36.8367 7.31255 29.9457C9.45589 23.0547 13.7114 17.0119 19.4772 12.6719L20.9683 14.6623C14.47 19.5763 10.0954 26.7881 8.7399 34.8217C7.38438 42.8553 9.1504 51.1033 13.6766 57.8775C18.2028 64.6517 25.1469 69.4399 33.0877 71.2621C41.0285 73.0844 49.3655 71.8028 56.3924 67.6798L57.6724 69.8239C52.3668 72.9487 46.3193 74.5909 40.1619 74.5791Z" fill="white"/>
<path d="M40.1699 64.8325C39.6451 64.8325 39.1204 64.8325 38.602 64.7813L38.762 62.2981C39.5592 62.3429 40.3583 62.3429 41.1555 62.2981L41.2645 64.7813C40.8805 64.8261 40.5347 64.8325 40.1699 64.8325ZM43.9204 64.5508L43.5427 62.0932C44.3339 61.9737 45.1181 61.8113 45.8916 61.6068L46.5316 64.0068C45.6719 64.236 44.8001 64.4175 43.9204 64.5508ZM35.9588 64.474C35.0829 64.3211 34.2155 64.1225 33.3604 63.8789L34.0452 61.4853C34.8138 61.706 35.5935 61.8854 36.3812 62.0229L35.9588 64.474ZM30.8388 63.0021C30.0175 62.6618 29.2143 62.2794 28.4324 61.8564L29.6227 59.6741C30.3249 60.0539 31.0471 60.3958 31.786 60.698L30.8388 63.0021ZM26.1668 60.4421C25.4325 59.9385 24.7273 59.3936 24.0548 58.81L25.6868 56.9284C26.2978 57.4538 26.9389 57.9432 27.6068 58.3941L26.1668 60.4421ZM22.1412 56.9668C21.5332 56.3176 20.9606 55.6361 20.426 54.9253L22.4163 53.4277C22.8971 54.0672 23.4121 54.6803 23.9588 55.2645L22.1412 56.9668ZM18.9412 52.7045C18.4854 51.9411 18.0731 51.1526 17.706 50.3429L19.9652 49.3125C20.2981 50.0401 20.6699 50.7494 21.0788 51.4373L18.9412 52.7045ZM16.7332 47.8596C16.4534 47.0199 16.2204 46.1653 16.0355 45.2997L18.4676 44.7813C18.6395 45.5644 18.8532 46.3377 19.1076 47.098L16.7332 47.8596ZM15.6196 42.6564C15.5364 41.8244 15.498 40.9797 15.498 40.1477V39.9941H17.9812V40.1284C17.9809 40.883 18.0193 41.6371 18.0963 42.3877L15.6196 42.6564ZM18.1284 37.6132L15.658 37.3316C15.759 36.4494 15.9086 35.5734 16.106 34.7077L18.5316 35.2516C18.3547 36.0372 18.2222 36.832 18.1348 37.6325L18.1284 37.6132ZM19.1845 32.9477L16.8291 32.1413C17.1186 31.3 17.4541 30.4753 17.834 29.6709L20.0804 30.7268C19.7449 31.4574 19.448 32.2051 19.1909 32.9668L19.1845 32.9477ZM21.2196 28.6148L19.0948 27.3348C19.5561 26.575 20.0605 25.8421 20.6052 25.1396L22.5763 26.6564C22.0884 27.289 21.6376 27.9494 21.226 28.6341L21.2196 28.6148Z" fill="white"/>
<path d="M24.034 21.2376L22.3105 23.0342L24.1071 24.7576L25.8305 22.9611L24.034 21.2376Z" fill="white"/>
<path d="M50.4291 59.832L48.1348 60.7988L49.1015 63.0931L51.3959 62.1263L50.4291 59.832Z" fill="white"/>
<path d="M47.8357 30.7279L30.6992 47.8584L32.4593 49.6191L49.5959 32.4886L47.8357 30.7279Z" fill="white"/>
<path d="M45.4936 49.9971C44.6076 49.9971 43.7415 49.7344 43.0047 49.2421C42.268 48.7498 41.6938 48.0502 41.3547 47.2315C41.0157 46.4129 40.9269 45.5121 41.0997 44.6431C41.2726 43.7741 41.6993 42.9758 42.3258 42.3493C42.9524 41.7227 43.7507 41.296 44.6197 41.1232C45.4888 40.9503 46.3894 41.0391 47.208 41.3781C48.0266 41.7172 48.7264 42.2914 49.2186 43.0281C49.7109 43.7649 49.9736 44.6311 49.9736 45.5171C49.9736 46.7053 49.5016 47.8448 48.6615 48.6849C47.8213 49.5251 46.6818 49.9971 45.4936 49.9971ZM45.4936 43.5331C45.0994 43.5318 44.7138 43.6477 44.3855 43.8659C44.0572 44.0841 43.801 44.3949 43.6496 44.7589C43.4981 45.1228 43.4581 45.5236 43.5347 45.9103C43.6113 46.297 43.8011 46.6522 44.0799 46.9309C44.3586 47.2097 44.7138 47.3994 45.1005 47.476C45.4872 47.5526 45.888 47.5126 46.2519 47.3612C46.6159 47.2098 46.9267 46.9536 47.1449 46.6253C47.3631 46.297 47.479 45.9113 47.4777 45.5171C47.4743 44.9932 47.2638 44.4918 46.8921 44.1225C46.5204 43.7532 46.0176 43.5459 45.4936 43.5459V43.5331Z" fill="white"/>
<path d="M34.8179 39.3214C33.9318 39.3214 33.0657 39.0586 32.329 38.5663C31.5923 38.074 31.0179 37.3744 30.6788 36.5558C30.3398 35.7372 30.2511 34.8364 30.424 33.9673C30.5969 33.0983 31.0236 32.3 31.6501 31.6735C32.2766 31.047 33.0748 30.6203 33.9438 30.4474C34.8129 30.2745 35.7137 30.3633 36.5323 30.7024C37.3509 31.0414 38.0506 31.6156 38.5429 32.3524C39.0352 33.0891 39.2979 33.9553 39.2979 34.8414C39.2979 36.0295 38.8259 37.169 37.9857 38.0092C37.1456 38.8493 36.0061 39.3214 34.8179 39.3214ZM34.8179 32.8573C34.424 32.8561 34.0386 32.9717 33.7104 33.1897C33.3822 33.4076 33.1261 33.718 32.9745 34.0816C32.8228 34.4452 32.7825 34.8456 32.8585 35.2321C32.9346 35.6186 33.1237 35.9739 33.4018 36.2529C33.6799 36.5319 34.0346 36.7221 34.4209 36.7994C34.8071 36.8767 35.2076 36.8377 35.5717 36.6872C35.9357 36.5368 36.247 36.2817 36.466 35.9542C36.685 35.6267 36.8018 35.2417 36.8018 34.8477C36.8018 34.3209 36.5931 33.8157 36.2212 33.4426C35.8493 33.0695 35.3447 32.859 34.8179 32.8573Z" fill="white"/>
</svg>
