<svg width="80" height="80" viewBox="0 0 80 80" fill="none" xmlns="http://www.w3.org/2000/svg">
<path d="M46.6368 36.1289H44.1472V26.3177H38.0736V36.1289H35.584V23.8281H46.6368V36.1289Z" fill="white"/>
<path d="M60.4532 36.1284H57.97V16.6404H51.89V36.1284H49.4004V14.1572H60.4532V36.1284Z" fill="white"/>
<path d="M74.2735 36.1285H71.7903V6.97007H65.7103V36.1285H63.2207V4.48047H74.2735V36.1285Z" fill="white"/>
<path d="M46.6368 56.7168H35.584V44.416H38.0736V54.2272H44.1472V44.416H46.6368V56.7168Z" fill="white"/>
<path d="M32.8204 66.3872H21.7676V44.416H24.2508V63.8976H30.3308V44.416H32.8204V66.3872Z" fill="white"/>
<path d="M19.002 76.0576H7.94922V44.416H10.4324V73.5744H16.5124V44.416H19.002V76.0576Z" fill="white"/>
<path d="M77.036 39.0273H3.80078V41.5169H77.036V39.0273Z" fill="white"/>
<path d="M5.05015 4.48047H2.56055V76.0581H5.05015V4.48047Z" fill="white"/>
<path d="M74.2726 73.5752H71.5078V76.0648H74.2726V73.5752Z" fill="white"/>
<path d="M68.7492 73.5752H65.9844V76.0648H68.7492V73.5752Z" fill="white"/>
<path d="M63.2199 73.5752H60.4551V76.0648H63.2199V73.5752Z" fill="white"/>
<path d="M10.714 4.48047H7.94922V6.97007H10.714V4.48047Z" fill="white"/>
<path d="M10.714 10.0098H7.94922V12.4994H10.714V10.0098Z" fill="white"/>
<path d="M10.714 15.54H7.94922V18.0296H10.714V15.54Z" fill="white"/>
<path d="M35.5847 4.48047H13.4727V6.97007H35.5847V4.48047Z" fill="white"/>
<path d="M35.5847 10.0098H13.4727V12.4994H35.5847V10.0098Z" fill="white"/>
<path d="M35.5847 15.54H13.4727V18.0296H35.5847V15.54Z" fill="white"/>
</svg>
