<svg width="80" height="80" viewBox="0 0 80 80" fill="none" xmlns="http://www.w3.org/2000/svg">
<path d="M45.146 52.2111H34.906V42.2463C31.3198 41.153 28.1798 38.9362 25.949 35.923C23.7181 32.9098 22.5145 29.2595 22.5156 25.5103V1.91992H57.5044V25.5103C57.5056 29.2549 56.3058 32.9012 54.0814 35.9136C51.857 38.9259 48.7252 41.1455 45.146 42.2463V52.2111ZM37.4276 49.7279H42.6628V40.3199L43.61 40.0895C46.8737 39.2903 49.775 37.4194 51.8496 34.7762C53.9242 32.1331 55.0522 28.8704 55.0532 25.5103V4.39031H25.0372V25.5103C25.0382 28.8704 26.1662 32.1331 28.2409 34.7762C30.3155 37.4194 33.2167 39.2903 36.4804 40.0895L37.4276 40.3199V49.7279Z" fill="white"/>
<path d="M51.9999 58.7454H28.0703V55.7374C28.0686 54.9519 28.2221 54.1738 28.5219 53.4478C28.8217 52.7218 29.2619 52.0622 29.8174 51.5068C30.3728 50.9514 31.0324 50.5111 31.7584 50.2113C32.4844 49.9115 33.2624 49.7581 34.0479 49.7598H46.0159C47.6019 49.7598 49.1229 50.3893 50.245 51.5102C51.367 52.631 51.9982 54.1514 51.9999 55.7374V58.7454ZM30.5535 56.2622H49.5103V55.7374C49.5103 55.2785 49.4199 54.8241 49.2443 54.4001C49.0687 53.9762 48.8113 53.5909 48.4868 53.2665C48.1624 52.942 47.7771 52.6846 47.3532 52.509C46.9292 52.3333 46.4748 52.243 46.0159 52.243H34.0479C33.589 52.243 33.1346 52.3333 32.7107 52.509C32.2867 52.6846 31.9015 52.942 31.577 53.2665C31.2525 53.5909 30.9951 53.9762 30.8195 54.4001C30.6439 54.8241 30.5535 55.2785 30.5535 55.7374V56.2622Z" fill="white"/>
<path d="M56.2812 26.7455V24.2623C57.1858 24.2631 58.0817 24.0856 58.9175 23.7398C59.7534 23.3941 60.5129 22.8868 61.1525 22.2472C61.7922 21.6076 62.2994 20.8481 62.6452 20.0122C62.9909 19.1763 63.1685 18.2805 63.1676 17.3759V10.5023H56.2812V8.0127H65.6252V17.3823C65.6219 19.8612 64.6369 22.2379 62.8859 23.9926C61.1348 25.7472 58.7602 26.737 56.2812 26.7455Z" fill="white"/>
<path d="M23.7826 26.7455C21.3015 26.7404 18.9235 25.7521 17.1697 23.9971C15.4159 22.2421 14.4292 19.8634 14.4258 17.3823V8.0127H23.7954V10.5023H16.9026V17.3823C16.9017 18.2863 17.0791 19.1817 17.4245 20.0171C17.7698 20.8526 18.2765 21.6118 18.9154 22.2513C19.5544 22.8909 20.3131 23.3982 21.1482 23.7444C21.9834 24.0905 22.8785 24.2687 23.7826 24.2687V26.7455Z" fill="white"/>
<path d="M45.7868 29.8366L40.0268 26.8158L34.2668 29.8366L35.3676 23.4366L30.7148 18.899L37.1148 17.9646L39.9884 12.1406L42.862 17.9646L49.262 18.899L44.6092 23.4366L45.7868 29.8366ZM36.0716 20.6398L38.0556 22.5598L37.5884 25.2862L40.0332 24.0062L42.4845 25.2862L42.0172 22.5598L43.9948 20.6398L41.2556 20.243L40.0268 17.7854L38.8045 20.2686L36.0716 20.6398Z" fill="white"/>
<path d="M56.5122 77.7788H54.029V58.7132H26.0418V77.7788H23.5586V56.2236H56.5122V77.7788Z" fill="white"/>
<path d="M71.7509 77.7793H69.2613V68.8641H56.5125V77.7793H54.0293V66.3809H71.7509V77.7793Z" fill="white"/>
<path d="M26.0419 77.7793H23.5587V68.8641H10.8099V77.7793H8.32031V66.3809H26.0419V77.7793Z" fill="white"/>
<path d="M41.2806 64.2812H38.791V76.5372H41.2806V64.2812Z" fill="white"/>
<path d="M43.0711 75.2959H37.0039V77.7855H43.0711V75.2959Z" fill="white"/>
<path d="M36.998 68.5564V66.0732C37.4728 66.0715 37.9276 65.8822 38.2633 65.5465C38.599 65.2108 38.7884 64.756 38.79 64.2812H41.3052C41.3053 64.8454 41.1936 65.4039 40.9768 65.9247C40.7599 66.4455 40.4421 66.9182 40.0418 67.3156C39.6414 67.713 39.1663 68.0273 38.6439 68.2402C38.1215 68.4532 37.5622 68.5606 36.998 68.5564Z" fill="white"/>
</svg>
