<svg width="80" height="80" viewBox="0 0 80 80" fill="none" xmlns="http://www.w3.org/2000/svg">
<path d="M58.4358 34.2908C57.5118 31.1246 55.8049 28.2422 53.4726 25.91C51.1404 23.5777 48.258 21.8708 45.0918 20.9468L45.783 18.5596C49.3521 19.6 52.6013 21.5236 55.2302 24.1524C57.859 26.7812 59.7825 30.0304 60.823 33.5996L58.4358 34.2908Z" fill="white"/>
<path d="M20.9913 34.2913L18.5977 33.6513C19.6392 30.0817 21.564 26.8323 24.1939 24.2035C26.8238 21.5747 30.074 19.6514 33.6441 18.6113L34.3289 20.9985C31.1689 21.9171 28.2909 23.6162 25.9601 25.9392C23.6293 28.2622 21.9205 31.1345 20.9913 34.2913Z" fill="white"/>
<path d="M33.6441 60.8055C30.0727 59.7659 26.8214 57.8419 24.1913 55.2118C21.5612 52.5817 19.6372 49.3304 18.5977 45.759L20.9913 45.0742C21.9131 48.2405 23.6185 51.1232 25.9498 53.4557C28.2811 55.7881 31.163 57.4949 34.3289 58.4182L33.6441 60.8055Z" fill="white"/>
<path d="M45.783 60.8055L45.0918 58.4182C48.2586 57.4953 51.1415 55.7887 53.4739 53.4563C55.8063 51.1239 57.5129 48.241 58.4358 45.0742L60.8294 45.759C59.7877 49.3293 57.863 52.5794 55.2332 55.2093C52.6034 57.8391 49.3532 59.7637 45.783 60.8055Z" fill="white"/>
<path d="M39.7107 78.7837L25.2595 64.3261H32.7411V46.6621H15.0963V54.1309L0.638672 39.6732L15.0963 25.2157V32.7037H32.7411V15.0909H25.2595L39.7107 0.639648L54.1683 15.0909H46.6803V32.7485H64.3187V25.2605L78.7763 39.718L64.3187 54.1309V46.6429H46.6803V64.3069H54.1683L39.7107 78.7837ZM31.2627 66.8156L39.7107 75.2637L48.1651 66.8156H44.1971V44.1725H66.8083V48.1405L75.2563 39.6925L66.8083 31.2445V35.2061H44.1971V12.5821H48.1651L39.7107 4.12766L31.2627 12.5821H35.2307V35.2061H12.6259V31.238L4.17787 39.6925L12.6259 48.1405V44.1725H35.2499V66.8156H31.2627Z" fill="white"/>
<path d="M40.9583 32.5312H38.4688V35.3921H40.9583V32.5312Z" fill="white"/>
<path d="M40.9583 26.8027H38.4688V29.6635H40.9583V26.8027Z" fill="white"/>
<path d="M40.9583 21.0811H38.4688V23.9419H40.9583V21.0811Z" fill="white"/>
<path d="M40.9583 43.9863H38.4688V46.8471H40.9583V43.9863Z" fill="white"/>
<path d="M40.9583 49.708H38.4688V52.5752H40.9583V49.708Z" fill="white"/>
<path d="M40.9583 55.4365H38.4688V58.2973H40.9583V55.4365Z" fill="white"/>
<path d="M35.4155 38.4443H32.5547V40.9339H35.4155V38.4443Z" fill="white"/>
<path d="M29.6889 38.4443H26.8281V40.9339H29.6889V38.4443Z" fill="white"/>
<path d="M23.9663 38.4443H21.1055V40.9339H23.9663V38.4443Z" fill="white"/>
<path d="M46.8706 38.4443H44.0098V40.9339H46.8706V38.4443Z" fill="white"/>
<path d="M52.6074 38.4443H49.7402V40.9339H52.6074V38.4443Z" fill="white"/>
<path d="M58.3281 38.4443H55.4609V40.9339H58.3281V38.4443Z" fill="white"/>
</svg>
