<svg width="80" height="80" viewBox="0 0 80 80" fill="none" xmlns="http://www.w3.org/2000/svg">
<path d="M46.0266 13.9839H33.457V16.4735H46.0266V13.9839Z" fill="white"/>
<path d="M70.5513 63.5903H63.2617V66.0799H70.5513V63.5903Z" fill="white"/>
<path d="M16.2154 63.5903H8.92578V66.0799H16.2154V63.5903Z" fill="white"/>
<path d="M64.5032 68.6147L46.8008 65.3571V35.7891H49.2904C49.2904 46.8675 55.556 55.8787 63.2552 55.8787H64.5352L64.5032 68.6147ZM49.2904 63.2899L62.0136 65.6259V58.3171C56.6504 57.7667 51.9912 53.6643 49.2904 47.7315V63.2899Z" fill="white"/>
<path d="M14.9766 68.6147V55.8787H16.2182C23.8982 55.8787 30.1894 46.8675 30.1894 35.7891H32.6726V65.3571L14.9766 68.6147ZM17.4598 58.3171V65.6387L30.1894 63.3027V47.7187C27.4822 53.6515 22.8294 57.7539 17.4598 58.3171Z" fill="white"/>
<path d="M49.2955 65.568H30.1915V28.8768C30.172 19.0931 33.1394 9.53664 38.6971 1.4848L39.7147 0L40.7387 1.4848C46.3146 9.53071 49.3 19.0877 49.2955 28.8768V65.568ZM32.6555 63.0848H46.7867V28.8768C46.8099 20.2222 44.368 11.7399 39.7467 4.42238C35.1254 11.7399 32.6835 20.2222 32.7067 28.8768L32.6555 63.0848Z" fill="white"/>
<path d="M46.2432 71.1554H33.2384L30.3008 64.8514L32.56 63.7954L34.8256 68.6722H44.656L46.9216 63.8018L49.1744 64.845L46.2432 71.1554Z" fill="white"/>
<path d="M71.7948 71.1617H62.0156V55.3281C62.0148 54.6857 62.1407 54.0495 62.3861 53.4559C62.6315 52.8623 62.9917 52.3229 63.4459 51.8687C63.9001 51.4145 64.4394 51.0544 65.0331 50.8089C65.6267 50.5635 66.2629 50.4376 66.9052 50.4385C68.2015 50.4402 69.4442 50.9559 70.3608 51.8725C71.2774 52.7891 71.7931 54.0318 71.7948 55.3281V71.1617ZM64.5052 68.6721H69.3052V55.3281C69.3052 54.6916 69.0524 54.0811 68.6023 53.631C68.1522 53.1809 67.5417 52.9281 66.9052 52.9281C66.2687 52.9281 65.6583 53.1809 65.2082 53.631C64.7581 54.0811 64.5052 54.6916 64.5052 55.3281V68.6721Z" fill="white"/>
<path d="M17.4589 71.1617H7.67969V55.3281C7.67969 54.0313 8.19485 52.7876 9.11183 51.8706C10.0288 50.9536 11.2725 50.4385 12.5693 50.4385C13.8661 50.4385 15.1098 50.9536 16.0268 51.8706C16.9437 52.7876 17.4589 54.0313 17.4589 55.3281V71.1617ZM10.1693 68.6721H14.9757V55.3281C14.9757 54.6899 14.7222 54.0778 14.2709 53.6265C13.8196 53.1752 13.2075 52.9217 12.5693 52.9217C11.9327 52.9251 11.3232 53.1799 10.8737 53.6306C10.4242 54.0814 10.171 54.6915 10.1693 55.3281V68.6721Z" fill="white"/>
<path d="M39.7404 31.84C38.7291 31.8337 37.7424 31.528 36.9046 30.9616C36.0668 30.3952 35.4156 29.5934 35.033 28.6573C34.6503 27.7212 34.5535 26.6927 34.7547 25.7017C34.9558 24.7106 35.446 23.8013 36.1633 23.0884C36.8806 22.3756 37.7929 21.8911 38.7852 21.6962C39.7775 21.5012 40.8053 21.6044 41.739 21.9929C42.6727 22.3813 43.4704 23.0375 44.0316 23.8788C44.5928 24.7201 44.8923 25.7087 44.8923 26.72C44.8822 28.0803 44.3352 29.3815 43.3703 30.3405C42.4053 31.2994 41.1007 31.8383 39.7404 31.84ZM39.7404 24.0256C39.2122 24.0243 38.6956 24.1798 38.2559 24.4723C37.8162 24.7647 37.4731 25.1811 37.2701 25.6686C37.0672 26.1562 37.0134 26.693 37.1157 27.2111C37.2179 27.7292 37.4716 28.2054 37.8446 28.5792C38.2175 28.9531 38.6931 29.2079 39.2109 29.3114C39.7288 29.4149 40.2657 29.3625 40.7538 29.1607C41.2418 28.9588 41.659 28.6168 41.9525 28.1778C42.2461 27.7387 42.4027 27.2225 42.4027 26.6944C42.4027 25.9877 42.1225 25.3098 41.6233 24.8095C41.1242 24.3092 40.4471 24.0273 39.7404 24.0256Z" fill="white"/>
<path d="M43.5951 73.3184H41.1055V79.5712H43.5951V73.3184Z" fill="white"/>
<path d="M38.3841 73.3184H35.8945V79.5712H38.3841V73.3184Z" fill="white"/>
<path d="M68.1537 73.3184H65.6641V79.5712H68.1537V73.3184Z" fill="white"/>
<path d="M13.8177 73.3184H11.3281V79.5712H13.8177V73.3184Z" fill="white"/>
<path d="M40.9857 39.7119H38.4961V42.2015H40.9857V39.7119Z" fill="white"/>
<path d="M40.9857 44.0513H38.4961V46.5345H40.9857V44.0513Z" fill="white"/>
<path d="M40.9857 48.3843H38.4961V50.8739H40.9857V48.3843Z" fill="white"/>
<path d="M40.9857 52.7168H38.4961V55.2064H40.9857V52.7168Z" fill="white"/>
</svg>
