<svg width="80" height="80" viewBox="0 0 80 80" fill="none" xmlns="http://www.w3.org/2000/svg">
<path d="M80.0004 75.2833H7.35352L27.0494 55.2769L33.9802 62.3169L50.6077 45.4272L80.0004 75.2833ZM13.2636 72.8001H74.0904L50.5951 48.9665L33.9676 65.8497L27.0368 58.8097L13.2636 72.8001Z" fill="white"/>
<path d="M56.4398 41.7324L54.707 43.4932L74.4874 63.5783L76.2202 61.8176L56.4398 41.7324Z" fill="white"/>
<path d="M14.2522 52.6207L12.5195 50.8607L38.9635 24.0063L46.4928 31.6544L44.7601 33.4144L38.9635 27.5199L14.2522 52.6207Z" fill="white"/>
<path d="M1.73269 74.918L0 73.158L27.0551 45.6828L33.9733 52.71L61.3687 24.8828L63.1013 26.6364L33.9733 56.23L27.0551 49.2028L1.73269 74.918Z" fill="white"/>
<path d="M63.4614 34.2333H61.0104V27.0013H53.8906V24.5181H63.4614V34.2333Z" fill="white"/>
<path d="M54.9609 17.1392H37.7285V4.47998H54.9609L51.4388 10.8096L54.9609 17.1392ZM40.1795 14.6496H50.7646L48.6287 10.8096L50.7646 6.96959H40.1795V14.6496Z" fill="white"/>
<path d="M40.1873 5.72168H37.7363V25.7601H40.1873V5.72168Z" fill="white"/>
</svg>
