<svg width="80" height="80" viewBox="0 0 80 80" fill="none" xmlns="http://www.w3.org/2000/svg">
<path d="M39.8334 60.0961L22.291 49.9648V29.7089L39.8334 19.5776L57.3823 29.7089V49.9648L39.8334 60.0961ZM24.7806 48.5312L39.8334 57.2225L54.8927 48.5312V31.1489L39.8334 22.4576L24.7806 31.1489V48.5312Z" fill="white"/>
<path d="M39.8318 41.2674L22.9102 31.501L24.1518 29.3442L39.8318 38.4002L55.5118 29.3442L56.7534 31.501L39.8318 41.2674Z" fill="white"/>
<path d="M41.0794 39.834H38.5898V58.6564H41.0794V39.834Z" fill="white"/>
<path d="M22.9113 31.5007L18.4953 28.9471H13.3945V26.4639H19.1609L24.1529 29.3439L22.9113 31.5007Z" fill="white"/>
<path d="M56.7533 31.5007L55.5117 29.3439L60.5037 26.4639H66.2765V28.9471H61.1757L56.7533 31.5007Z" fill="white"/>
<path d="M66.2765 53.2096H60.5037L55.5117 50.3232L56.7533 48.1729L61.1757 50.72H66.2765V53.2096Z" fill="white"/>
<path d="M19.1609 53.2096H13.3945V50.72H18.4953L22.9113 48.1729L24.1529 50.3232L19.1609 53.2096Z" fill="white"/>
<path d="M41.0794 13.3955H38.5898V21.0179H41.0794V13.3955Z" fill="white"/>
<path d="M41.0794 58.6562H38.5898V66.2786H41.0794V58.6562Z" fill="white"/>
<path d="M16.1593 10.7715H13.3945V13.2611H16.1593V10.7715Z" fill="white"/>
<path d="M66.2765 10.7715H63.5117V13.2611H66.2765V10.7715Z" fill="white"/>
<path d="M16.1593 66.4189H13.3945V68.9085H16.1593V66.4189Z" fill="white"/>
<path d="M66.2765 66.4189H63.5117V68.9085H66.2765V66.4189Z" fill="white"/>
<path d="M46.515 14.637H33.1582V1.28027H46.515V14.637ZM35.635 12.1475H44.0127V3.7698H35.635V12.1475Z" fill="white"/>
<path d="M46.515 78.3871H33.1582V65.0303H46.515V78.3871ZM35.635 75.8975H44.0127V67.52H35.635V75.8975Z" fill="white"/>
<path d="M14.6361 34.2468H1.2793V20.9092H14.6361V34.2468ZM3.75609 31.7636H12.1401V23.3796H3.75609V31.7636Z" fill="white"/>
<path d="M14.6361 58.7776H1.2793V45.4209H14.6361V58.7776ZM3.75609 56.2945H12.1401V47.9104H3.75609V56.2945Z" fill="white"/>
<path d="M78.3861 34.2468H65.0293V20.9092H78.3861V34.2468ZM67.5061 31.7636H75.9093V23.3796H67.5317L67.5061 31.7636Z" fill="white"/>
<path d="M78.3861 58.7776H65.0293V45.4209H78.3861V58.7776ZM67.5061 56.2945H75.9093V47.9104H67.5317L67.5061 56.2945Z" fill="white"/>
</svg>
