<svg width="80" height="80" viewBox="0 0 80 80" fill="none" xmlns="http://www.w3.org/2000/svg">
<path d="M41.1146 61.3701H38.625V68.2821H41.1146V61.3701Z" fill="white"/>
<path d="M35.7253 71.1807H2.56055V73.6703H35.7253V71.1807Z" fill="white"/>
<path d="M77.1785 71.1807H44.0137V73.6703H77.1785V71.1807Z" fill="white"/>
<path d="M39.8653 77.8177C38.7995 77.8177 37.7577 77.5016 36.8715 76.9094C35.9853 76.3173 35.2946 75.4758 34.8868 74.4911C34.4789 73.5064 34.3722 72.4229 34.5801 71.3776C34.788 70.3322 35.3012 69.3721 36.0549 68.6184C36.8085 67.8648 37.7687 67.3515 38.814 67.1436C39.8593 66.9357 40.9429 67.0424 41.9275 67.4502C42.9122 67.8581 43.7538 68.5488 44.346 69.435C44.9381 70.3212 45.2542 71.363 45.2542 72.4288C45.2525 73.8575 44.6842 75.2272 43.6739 76.2374C42.6637 77.2476 41.294 77.816 39.8653 77.8177ZM39.8653 69.4977C39.2907 69.4977 38.7289 69.6681 38.2511 69.9873C37.7732 70.3066 37.4008 70.7604 37.1809 71.2913C36.961 71.8223 36.9035 72.4064 37.0156 72.9701C37.1277 73.5337 37.4044 74.0515 37.8107 74.4578C38.2171 74.8642 38.7348 75.1409 39.2985 75.253C39.8621 75.3652 40.4464 75.3076 40.9773 75.0877C41.5082 74.8677 41.962 74.4953 42.2813 74.0175C42.6006 73.5397 42.771 72.978 42.771 72.4033C42.7642 71.6371 42.4551 70.9046 41.9109 70.3652C41.3667 69.8258 40.6315 69.5232 39.8653 69.5233V69.4977Z" fill="white"/>
<path d="M71.6491 62.6173H8.10352V60.1277C8.87302 60.1277 9.61114 59.8225 10.1559 59.279C10.7006 58.7355 11.0074 57.998 11.0091 57.2285V15.9102H77.0571V57.2285C77.0571 58.6577 76.4893 60.0284 75.4788 61.039C74.4682 62.0496 73.0975 62.6173 71.6683 62.6173H71.6491ZM12.6283 60.1277H71.6491C72.4186 60.1277 73.1567 59.8225 73.7014 59.279C74.2461 58.7355 74.553 57.998 74.5547 57.2285V18.3998H13.4731V57.2285C13.4761 58.256 13.1827 59.2626 12.6283 60.1277Z" fill="white"/>
<path d="M8.10172 62.6178C6.67304 62.6161 5.30335 62.0478 4.29312 61.0375C3.2829 60.0273 2.71458 58.6576 2.71289 57.229V3.2002H29.3433L34.8729 8.7234H77.0553V13.5618H74.5721V11.213H33.8425L28.3129 5.6898H5.2025V57.229C5.20419 57.9973 5.51018 58.7338 6.05352 59.2772C6.59685 59.8205 7.33332 60.1265 8.10172 60.1282V62.6178Z" fill="white"/>
<path d="M71.6474 54.5986H16.377V57.0882H71.6474V54.5986Z" fill="white"/>
<path d="M13.6125 8.72363H10.8477V11.2132H13.6125V8.72363Z" fill="white"/>
<path d="M19.1418 8.72363H16.377V11.2132H19.1418V8.72363Z" fill="white"/>
<path d="M24.6652 8.72363H21.9004V11.2132H24.6652V8.72363Z" fill="white"/>
<path d="M71.6469 21.4404H55.0645V23.93H71.6469V21.4404Z" fill="white"/>
<path d="M63.3589 26.9629H55.0645V29.4525H63.3589V26.9629Z" fill="white"/>
</svg>
