<svg width="80" height="80" viewBox="0 0 80 80" fill="none" xmlns="http://www.w3.org/2000/svg">
<path d="M41.4093 5.31836H38.6445V7.80797H41.4093V5.31836Z" fill="white"/>
<path d="M63.5148 5.31836H60.75V7.80797H63.5148V5.31836Z" fill="white"/>
<path d="M19.298 16.377H16.5332V18.8666H19.298V16.377Z" fill="white"/>
<path d="M19.298 5.31836H16.5332V7.80797H19.298V5.31836Z" fill="white"/>
<path d="M30.3488 16.377H27.584V18.8666H30.3488V16.377Z" fill="white"/>
<path d="M41.4093 16.377H38.6445V18.8666H41.4093V16.377Z" fill="white"/>
<path d="M63.5148 16.377H60.75V18.8666H63.5148V16.377Z" fill="white"/>
<path d="M74.5675 16.377H71.8027V18.8666H74.5675V16.377Z" fill="white"/>
<path d="M8.24332 27.4297H5.47852V29.9193H8.24332V27.4297Z" fill="white"/>
<path d="M74.5675 27.4297H71.8027V29.9193H74.5675V27.4297Z" fill="white"/>
<path d="M8.24332 49.5352H5.47852V52.0248H8.24332V49.5352Z" fill="white"/>
<path d="M8.24332 60.5947H5.47852V63.0843H8.24332V60.5947Z" fill="white"/>
<path d="M19.298 60.5947H16.5332V63.0843H19.298V60.5947Z" fill="white"/>
<path d="M30.3488 60.5947H27.584V63.0843H30.3488V60.5947Z" fill="white"/>
<path d="M41.4093 60.5947H38.6445V63.0843H41.4093V60.5947Z" fill="white"/>
<path d="M52.4621 60.5947H49.6973V63.0843H52.4621V60.5947Z" fill="white"/>
<path d="M63.5148 60.5947H60.75V63.0843H63.5148V60.5947Z" fill="white"/>
<path d="M30.3488 71.6475H27.584V74.137H30.3488V71.6475Z" fill="white"/>
<path d="M41.4093 71.6475H38.6445V74.137H41.4093V71.6475Z" fill="white"/>
<path d="M28.942 10.5723C28.1496 10.5723 27.375 10.3374 26.7161 9.89718C26.0573 9.45695 25.5438 8.83129 25.2406 8.09922C24.9373 7.36714 24.8579 6.56154 25.0125 5.78437C25.1671 5.00721 25.5487 4.29327 26.109 3.73296C26.6693 3.17266 27.3832 2.79115 28.1603 2.63656C28.9375 2.48197 29.7431 2.56129 30.4752 2.86453C31.2072 3.16776 31.8329 3.6813 32.2731 4.34015C32.7134 4.999 32.9484 5.77354 32.9484 6.56593C32.9467 7.62798 32.524 8.64605 31.7731 9.39703C31.0221 10.148 30.004 10.5706 28.942 10.5723ZM28.942 5.04281C28.6407 5.04281 28.3462 5.13216 28.0957 5.29953C27.8452 5.4669 27.65 5.70479 27.5347 5.98312C27.4194 6.26145 27.3893 6.56765 27.4481 6.86312C27.5068 7.15859 27.6519 7.42994 27.8649 7.64296C28.078 7.85599 28.3493 8.00107 28.6448 8.05984C28.9403 8.11861 29.2465 8.08856 29.5249 7.97328C29.8032 7.85799 30.0411 7.66267 30.2085 7.41218C30.3758 7.1617 30.4652 6.86719 30.4652 6.56593C30.4652 6.16196 30.3047 5.77456 30.019 5.4889C29.7333 5.20325 29.3459 5.04281 28.942 5.04281Z" fill="white"/>
<path d="M6.86189 21.6505C6.0695 21.6505 5.29488 21.4155 4.63603 20.9753C3.97718 20.5351 3.46372 19.9093 3.16048 19.1772C2.85725 18.4451 2.77785 17.6397 2.93244 16.8625C3.08702 16.0853 3.46862 15.3714 4.02892 14.8111C4.58923 14.2508 5.30308 13.8693 6.08025 13.7147C6.85741 13.5601 7.66302 13.6394 8.39509 13.9427C9.12717 14.2459 9.75283 14.7594 10.1931 15.4183C10.6333 16.0771 10.8683 16.8517 10.8683 17.6441C10.8666 18.7061 10.444 19.7242 9.69298 20.4752C8.942 21.2261 7.92393 21.6488 6.86189 21.6505ZM6.86189 16.1273C6.56009 16.1261 6.26469 16.2144 6.01322 16.3812C5.76175 16.5481 5.56555 16.7859 5.44947 17.0645C5.33339 17.3431 5.3027 17.65 5.36126 17.9461C5.41983 18.2422 5.56504 18.5141 5.77845 18.7275C5.99186 18.9409 6.26387 19.0861 6.55994 19.1447C6.856 19.2033 7.16275 19.1725 7.44134 19.0564C7.71993 18.9403 7.95774 18.7441 8.12462 18.4927C8.29151 18.2412 8.37995 17.9459 8.37869 17.6441C8.38122 17.443 8.34393 17.2433 8.26892 17.0567C8.19391 16.8701 8.08267 16.7003 7.94166 16.5569C7.80064 16.4135 7.63261 16.2994 7.44728 16.2212C7.26196 16.1431 7.06301 16.1025 6.86189 16.1017V16.1273Z" fill="white"/>
<path d="M51.0786 10.5723C50.2862 10.5723 49.5117 10.3374 48.8528 9.89718C48.194 9.45695 47.6805 8.83129 47.3772 8.09922C47.074 7.36714 46.9947 6.56154 47.1493 5.78437C47.3038 5.00721 47.6854 4.29327 48.2457 3.73296C48.806 3.17266 49.5199 2.79115 50.2971 2.63656C51.0742 2.48197 51.8798 2.56129 52.6118 2.86453C53.3439 3.16776 53.9697 3.6813 54.4099 4.34015C54.8501 4.999 55.085 5.77354 55.085 6.56593C55.0833 7.62798 54.6607 8.64605 53.9097 9.39703C53.1587 10.148 52.1407 10.5706 51.0786 10.5723ZM51.0786 5.04281C50.7771 5.04154 50.482 5.1298 50.2307 5.2964C49.9793 5.463 49.7831 5.70038 49.6668 5.97859C49.5506 6.2568 49.5195 6.56332 49.5775 6.85921C49.6356 7.15511 49.7802 7.42711 49.9929 7.64078C50.2057 7.85444 50.477 8.00008 50.7727 8.05937C51.0683 8.11866 51.3749 8.089 51.6536 7.9739C51.9323 7.85881 52.1707 7.66343 52.3383 7.41281C52.506 7.16218 52.5954 6.86747 52.5954 6.56593C52.5938 6.16358 52.4336 5.77808 52.1497 5.49296C51.8658 5.20785 51.481 5.04617 51.0786 5.04281Z" fill="white"/>
<path d="M73.1836 65.8428C72.3915 65.8416 71.6176 65.6056 70.9596 65.1646C70.3016 64.7236 69.789 64.0974 69.4867 63.3652C69.1845 62.633 69.106 61.8276 69.2614 61.0508C69.4167 60.2741 69.7988 59.5609 70.3593 59.0013C70.9199 58.4416 71.6337 58.0607 72.4107 57.9066C73.1877 57.7525 73.9929 57.8322 74.7246 58.1357C75.4563 58.4391 76.0817 58.9526 76.5217 59.6113C76.9616 60.27 77.1964 61.0443 77.1964 61.8364C77.1947 62.8996 76.7712 63.9186 76.0189 64.6697C75.2665 65.4209 74.2468 65.8428 73.1836 65.8428ZM73.1836 60.3196C72.8821 60.3196 72.5874 60.4091 72.3367 60.5768C72.0861 60.7444 71.8908 60.9827 71.7757 61.2614C71.6606 61.5401 71.6309 61.8467 71.6902 62.1424C71.7495 62.438 71.8952 62.7095 72.1089 62.9222C72.3225 63.135 72.5945 63.2795 72.8904 63.3375C73.1863 63.3956 73.4927 63.3644 73.771 63.2482C74.0492 63.1319 74.2866 62.9357 74.4532 62.6844C74.6198 62.4331 74.7081 62.138 74.7068 61.8364C74.7068 61.6367 74.6674 61.4389 74.5907 61.2544C74.5141 61.07 74.4018 60.9025 74.2603 60.7616C74.1187 60.6207 73.9508 60.509 73.766 60.4332C73.5813 60.3573 73.3833 60.3187 73.1836 60.3196Z" fill="white"/>
<path d="M17.9138 76.9026C17.1198 76.9039 16.3433 76.6695 15.6826 76.2294C15.0218 75.7892 14.5065 75.163 14.2018 74.4298C13.8971 73.6967 13.8168 72.8897 13.9709 72.1109C14.125 71.3321 14.5066 70.6164 15.0676 70.0545C15.6285 69.4927 16.3435 69.1099 17.1221 68.9545C17.9007 68.7992 18.7079 68.8783 19.4415 69.1819C20.1751 69.4854 20.8022 69.9996 21.2434 70.6597C21.6847 71.3197 21.9202 72.0959 21.9202 72.8898C21.9202 73.953 21.4983 74.9726 20.7471 75.725C19.996 76.4773 18.9769 76.9009 17.9138 76.9026ZM17.9138 71.3729C17.6122 71.3729 17.3174 71.4625 17.0668 71.6301C16.8162 71.7978 16.621 72.0361 16.5059 72.3148C16.3908 72.5935 16.361 72.9001 16.4203 73.1958C16.4796 73.4914 16.6253 73.7627 16.839 73.9754C17.0527 74.1882 17.3247 74.3329 17.6206 74.3909C17.9164 74.449 18.2229 74.4178 18.5011 74.3015C18.7793 74.1853 19.0168 73.9891 19.1834 73.7378C19.35 73.4865 19.4382 73.1914 19.437 72.8898C19.437 72.6901 19.3975 72.4922 19.3209 72.3078C19.2442 72.1233 19.1319 71.9559 18.9904 71.815C18.8489 71.674 18.6809 71.5624 18.4962 71.4865C18.3114 71.4107 18.1135 71.3721 17.9138 71.3729Z" fill="white"/>
<path d="M62.1325 76.9026C61.3386 76.9039 60.5621 76.6695 59.9014 76.2294C59.2407 75.7892 58.7253 75.163 58.4206 74.4298C58.1159 73.6967 58.0355 72.8897 58.1896 72.1109C58.3437 71.3321 58.7254 70.6164 59.2864 70.0545C59.8473 69.4927 60.5623 69.1099 61.3408 68.9545C62.1194 68.7992 62.9266 68.8783 63.6602 69.1819C64.3938 69.4854 65.021 69.9996 65.4622 70.6597C65.9034 71.3197 66.1389 72.0959 66.1389 72.8898C66.1389 73.953 65.717 74.9726 64.9658 75.725C64.2147 76.4773 63.1956 76.9009 62.1325 76.9026ZM62.1325 71.3729C61.831 71.3729 61.5362 71.4625 61.2856 71.6301C61.035 71.7978 60.8398 72.0361 60.7247 72.3148C60.6096 72.5935 60.5798 72.9001 60.6391 73.1958C60.6983 73.4914 60.8441 73.7627 61.0577 73.9754C61.2714 74.1882 61.5434 74.3329 61.8393 74.3909C62.1352 74.449 62.4416 74.4178 62.7198 74.3015C62.998 74.1853 63.2355 73.9891 63.4021 73.7378C63.5687 73.4865 63.657 73.1914 63.6557 72.8898C63.6557 72.6901 63.6162 72.4922 63.5396 72.3078C63.463 72.1233 63.3507 71.9559 63.2092 71.815C63.0677 71.674 62.8997 71.5624 62.7149 71.4865C62.5301 71.4107 62.3322 71.3721 62.1325 71.3729Z" fill="white"/>
<path d="M40.0261 57.5549C24.8773 57.5549 10.7269 51.0012 3.09172 40.4604L2.56055 39.7309L3.09172 39.0013C10.7269 28.4541 24.8517 21.9004 40.0261 21.9004C55.2005 21.9004 69.3189 28.4541 76.9605 39.0013L77.4853 39.7309L76.9605 40.4604C69.3189 51.0012 55.1813 57.5549 40.0261 57.5549ZM5.64531 39.7309C12.9413 49.2093 26.0165 55.0909 40.0261 55.0909C54.0357 55.0909 67.1045 49.2349 74.4005 39.7309C67.1045 30.2461 54.0293 24.3709 40.0261 24.3709C26.0229 24.3709 12.9413 30.2461 5.64531 39.7309Z" fill="white"/>
<path d="M63.5148 38.4824H60.75V40.972H63.5148V38.4824Z" fill="white"/>
<path d="M69.0441 38.4824H66.2793V40.972H69.0441V38.4824Z" fill="white"/>
<path d="M13.7667 38.4824H11.002V40.972H13.7667V38.4824Z" fill="white"/>
<path d="M19.298 38.4824H16.5332V40.972H19.298V38.4824Z" fill="white"/>
<path d="M40.027 46.5014C38.6878 46.5014 37.3787 46.1042 36.2652 45.3602C35.1517 44.6162 34.2838 43.5587 33.7713 42.3214C33.2588 41.0842 33.1247 39.7227 33.386 38.4093C33.6472 37.0958 34.2922 35.8892 35.2392 34.9422C36.1861 33.9953 37.3926 33.3504 38.7061 33.0891C40.0196 32.8278 41.381 32.9619 42.6183 33.4744C43.8556 33.9869 44.9131 34.8548 45.6571 35.9683C46.4012 37.0818 46.7983 38.391 46.7983 39.7302C46.7966 41.5255 46.0826 43.2468 44.8131 44.5163C43.5437 45.7858 41.8224 46.4997 40.027 46.5014ZM40.027 35.4422C39.1787 35.441 38.3491 35.6914 37.6431 36.1618C36.9371 36.6322 36.3865 37.3015 36.061 38.0849C35.7354 38.8683 35.6496 39.7306 35.8143 40.5628C35.979 41.3951 36.3869 42.1597 36.9863 42.76C37.5858 43.3604 38.3498 43.7694 39.1818 43.9353C40.0138 44.1013 40.8763 44.0167 41.6602 43.6924C42.4441 43.368 43.1141 42.8185 43.5856 42.1132C44.057 41.4079 44.3087 40.5785 44.3087 39.7302C44.307 38.5946 43.8555 37.5058 43.0531 36.7022C42.2507 35.8986 41.1627 35.4456 40.027 35.4422Z" fill="white"/>
<path d="M40.0262 57.5544C36.4991 57.5557 33.0509 56.5108 30.1178 54.5521C27.1846 52.5933 24.8983 49.8087 23.5479 46.5504C22.1976 43.292 21.844 39.7063 22.5318 36.2469C23.2195 32.7876 24.9178 29.61 27.4118 27.116C29.9058 24.622 33.0835 22.9236 36.5429 22.2358C40.0022 21.5481 43.5879 21.9018 46.8462 23.2521C50.1046 24.6024 52.8892 26.8888 54.8479 29.8219C56.8067 32.7551 57.8515 36.2033 57.8503 39.7304C57.8435 44.4555 55.9634 48.9851 52.6222 52.3263C49.281 55.6675 44.7514 57.5477 40.0262 57.5544ZM40.0262 24.3896C36.9883 24.3896 34.0186 25.2904 31.4927 26.9782C28.9668 28.666 26.998 31.0649 25.8354 33.8716C24.6729 36.6783 24.3687 39.7666 24.9614 42.7462C25.554 45.7257 27.017 48.4626 29.1651 50.6107C31.3133 52.7588 34.0501 54.2218 37.0296 54.8144C40.0092 55.4071 43.0976 55.1029 45.9043 53.9404C48.7109 52.7778 51.1098 50.8091 52.7976 48.2832C54.4854 45.7572 55.3862 42.7875 55.3862 39.7496C55.3862 35.6759 53.7679 31.7689 50.8874 28.8883C48.0068 26.0078 44.0999 24.3896 40.0262 24.3896Z" fill="white"/>
</svg>
