<svg width="80" height="80" viewBox="0 0 80 80" fill="none" xmlns="http://www.w3.org/2000/svg">
<path d="M40.2545 70.2911C34.3138 70.2924 28.5062 68.5319 23.5661 65.2324C18.626 61.9329 14.7753 57.2424 12.501 51.7543C10.2268 46.2662 9.63105 40.2269 10.7892 34.4003C11.9474 28.5736 14.8075 23.2212 19.0078 19.0201C23.208 14.819 28.5598 11.9577 34.3862 10.7983C40.2126 9.63887 46.252 10.2333 51.7406 12.5064C57.2292 14.7795 61.9204 18.6292 65.221 23.5686C68.5216 28.508 70.2833 34.3152 70.2833 40.2559C70.2715 48.217 67.1041 55.8487 61.4754 61.4787C55.8466 67.1086 48.2156 70.2776 40.2545 70.2911ZM40.2545 12.6911C34.8116 12.6911 29.4909 14.3051 24.9652 17.3291C20.4396 20.353 16.9123 24.6511 14.8294 29.6797C12.7464 34.7083 12.2014 40.2417 13.2633 45.58C14.3252 50.9184 16.9462 55.8219 20.7949 59.6707C24.6437 63.5194 29.5473 66.1405 34.8856 67.2023C40.224 68.2642 45.7573 67.7192 50.786 65.6363C55.8146 63.5533 60.1126 60.0261 63.1365 55.5004C66.1605 50.9748 67.7745 45.6541 67.7745 40.2111C67.7542 32.921 64.8475 25.9356 59.6901 20.783C54.5328 15.6305 47.5447 12.7302 40.2545 12.7167V12.6911Z" fill="white"/>
<path d="M7.16625 36.6847L4.68945 36.4223C4.77905 35.5839 4.90066 34.7327 5.05426 33.8623L7.49906 34.3039C7.34546 35.1167 7.23665 35.9359 7.16625 36.6847ZM8.00465 32.0191L5.59184 31.3791C5.80304 30.5599 6.03983 29.7343 6.30863 28.9279L8.67023 29.7151C8.40783 30.4895 8.18384 31.2511 7.99184 32.0191H8.00465ZM9.50227 27.5391L7.16625 26.5599C7.49265 25.7791 7.85103 24.9983 8.22863 24.2367L10.4495 25.3503C10.1231 26.0607 9.79025 26.7839 9.48945 27.5135L9.50227 27.5391ZM11.6334 23.2959L9.48945 22.0159C9.92465 21.2927 10.3854 20.5695 10.8718 19.8719L12.9134 21.2927C12.4526 21.9263 12.0174 22.5983 11.6462 23.2703L11.6334 23.2959ZM14.3407 19.3983L12.4207 17.8367C12.9583 17.1967 13.5215 16.5567 14.0975 15.9167L15.915 17.6063C15.3454 18.1503 14.8463 18.7583 14.3279 19.3727L14.3407 19.3983ZM17.5791 15.9231L15.8766 14.1055C16.5166 13.5295 17.1566 12.9663 17.7966 12.4287L19.3582 14.3487C18.7438 14.8159 18.1358 15.3599 17.5662 15.8975L17.5791 15.9231ZM21.2463 12.8959L19.8255 10.8543C20.5167 10.3743 21.2399 9.90713 21.9695 9.47193L23.2495 11.6095C22.5775 12.0319 21.8862 12.4671 21.2463 12.8959ZM25.323 10.4703L24.203 8.24951C24.9646 7.86551 25.7454 7.50713 26.5262 7.18713L27.4798 9.48471C26.763 9.80471 26.0399 10.1375 25.3359 10.4895L25.323 10.4703ZM29.7007 8.65271L28.9262 6.31033C29.7262 6.04153 30.5519 5.79834 31.3775 5.59354L32.0175 7.9999C31.2239 8.1983 30.4622 8.41593 29.7134 8.67193L29.7007 8.65271ZM34.2959 7.4815L33.8543 5.03033C34.6863 4.88313 35.5375 4.76153 36.3823 4.66553L36.6446 7.14232C35.8766 7.24472 35.083 7.35992 34.3086 7.50072L34.2959 7.4815Z" fill="white"/>
<path d="M41.5033 4.47998H39.0137V6.96318H41.5033V4.47998Z" fill="white"/>
<path d="M6.96809 39.0146H4.47852V41.4979H6.96809V39.0146Z" fill="white"/>
<path d="M44.1042 75.8336L43.8418 73.3567C44.6226 73.2735 45.4162 73.1583 46.1906 73.0175L46.6322 75.4688C45.8002 75.6159 44.9234 75.7376 44.1042 75.8336ZM49.1282 74.9247L48.4882 72.5183C49.2498 72.3199 50.0178 72.0959 50.7602 71.8783L51.5474 74.2399C50.773 74.4703 49.9474 74.7135 49.1282 74.9247ZM53.9602 73.312L53.013 71.0143C53.7362 70.7135 54.4594 70.3743 55.1698 70.0287L56.2834 72.2495C55.5282 72.6335 54.7474 72.9856 53.9602 73.312ZM58.5234 71.0271L57.2434 68.8895C57.9218 68.4863 58.5938 68.0511 59.2402 67.6095L60.661 69.6511C59.9698 70.1247 59.2466 70.5919 58.5234 71.0271ZM62.709 68.1087L61.141 66.1887C61.781 65.6959 62.3634 65.1712 62.9394 64.6336L64.6354 66.4511C64.0146 67.0143 63.3682 67.5775 62.709 68.1087ZM66.4402 64.6336L64.6162 62.9375C65.1538 62.3615 65.6786 61.7599 66.1714 61.1455L68.0914 62.7071C67.573 63.3663 67.0162 64.0192 66.4402 64.6336ZM69.6402 60.6655L67.5986 59.2447C68.0466 58.6047 68.4818 57.9263 68.8786 57.2479L71.0162 58.5279C70.5874 59.2447 70.1202 59.9679 69.6402 60.6655ZM72.245 56.2752L70.0242 55.1359C70.3762 54.4319 70.709 53.7023 71.0098 52.9791L73.3074 53.9327C72.9874 54.7391 72.629 55.52 72.245 56.2752ZM74.2034 51.5583L71.8418 50.7775C72.0914 50.0287 72.3154 49.2607 72.4818 48.4991L74.8946 49.1391C74.709 49.9327 74.4722 50.7583 74.2034 51.5583ZM75.4834 46.6175L73.0386 46.1759C73.1794 45.4015 73.2882 44.6079 73.3714 43.8271L75.8482 44.0895C75.733 44.9343 75.6434 45.7855 75.4578 46.6175H75.4834Z" fill="white"/>
<path d="M76.0306 39.0146H73.541V41.4979H76.0306V39.0146Z" fill="white"/>
<path d="M41.5033 73.5488H39.0137V76.032H41.5033V73.5488Z" fill="white"/>
<path d="M40.2579 54.8031C35.37 54.7959 30.5695 53.5066 26.3357 51.064C22.1018 48.6214 18.5828 45.111 16.1299 40.8831L15.7715 40.2431L16.1299 39.6031C18.5727 35.3714 22.0864 31.8573 26.3178 29.4141C30.5493 26.9708 35.3493 25.6846 40.2355 25.6846C45.1216 25.6846 49.9217 26.9708 54.1532 29.4141C58.3846 31.8573 61.8983 35.3714 64.3411 39.6031L64.6995 40.2431L64.3411 40.8831C61.8915 45.104 58.3794 48.6099 54.1543 51.052C49.9291 53.4942 45.1381 54.7874 40.2579 54.8031ZM18.6899 40.2559C20.9579 43.9406 24.1317 46.9831 27.9089 49.0935C31.686 51.2039 35.9407 52.3119 40.2675 52.3119C44.5943 52.3119 48.8489 51.2039 52.6261 49.0935C56.4033 46.9831 59.5771 43.9406 61.8451 40.2559C59.5759 36.5727 56.4017 33.5317 52.6247 31.4224C48.8476 29.3131 44.5936 28.2057 40.2675 28.2057C35.9414 28.2057 31.6873 29.3131 27.9103 31.4224C24.1333 33.5317 20.9591 36.5727 18.6899 40.2559Z" fill="white"/>
<path d="M40.254 51.0014C38.1284 51.0027 36.0502 50.3736 34.2823 49.1936C32.5144 48.0136 31.136 46.3359 30.3218 44.3725C29.5075 42.4091 29.2938 40.2483 29.7077 38.1634C30.1216 36.0786 31.1445 34.1633 32.647 32.6599C34.1496 31.1564 36.0642 30.1323 38.1489 29.7172C40.2335 29.3021 42.3944 29.5145 44.3582 30.3276C46.3221 31.1407 48.0007 32.518 49.1818 34.2853C50.3628 36.0525 50.9932 38.1303 50.9932 40.2559C50.9898 43.1036 49.8574 45.8339 47.8444 47.8482C45.8313 49.8624 43.1017 50.9964 40.254 51.0014ZM40.254 31.9999C38.6193 31.9986 37.0209 32.4823 35.6612 33.3897C34.3015 34.2971 33.2415 35.5874 32.6153 37.0974C31.9892 38.6074 31.825 40.2693 32.1436 41.8726C32.4622 43.476 33.2493 44.9488 34.4052 46.1047C35.5611 47.2606 37.0339 48.0476 38.6372 48.3662C40.2406 48.6848 41.9024 48.5207 43.4124 47.8945C44.9224 47.2683 46.2128 46.2083 47.1202 44.8486C48.0276 43.4889 48.5112 41.8906 48.51 40.2559C48.5066 38.0673 47.6357 35.9693 46.0881 34.4217C44.5406 32.8742 42.4426 32.0032 40.254 31.9999Z" fill="white"/>
<path d="M40.2527 43.9873C39.5147 43.9873 38.7933 43.7685 38.1797 43.3585C37.5661 42.9485 37.0879 42.3657 36.8055 41.6839C36.5231 41.0022 36.4492 40.2519 36.5932 39.5282C36.7371 38.8044 37.0925 38.1396 37.6143 37.6177C38.1362 37.0959 38.801 36.7406 39.5248 36.5966C40.2486 36.4526 40.9988 36.5265 41.6806 36.8089C42.3623 37.0913 42.9451 37.5696 43.3551 38.1832C43.7651 38.7968 43.9839 39.5181 43.9839 40.2561C43.9839 41.2457 43.5908 42.1947 42.8911 42.8945C42.1913 43.5942 41.2423 43.9873 40.2527 43.9873ZM40.2527 39.0145C40.0053 39.0132 39.7632 39.0855 39.557 39.2222C39.3508 39.3588 39.1898 39.5537 39.0945 39.782C38.9993 40.0103 38.9741 40.2617 39.022 40.5044C39.07 40.7471 39.1889 40.97 39.3638 41.145C39.5388 41.3199 39.7617 41.4388 40.0044 41.4868C40.2471 41.5347 40.4985 41.5095 40.7268 41.4143C40.9551 41.319 41.15 41.158 41.2867 40.9518C41.4233 40.7456 41.4956 40.5035 41.4943 40.2561C41.4943 40.093 41.4622 39.9316 41.3998 39.7809C41.3374 39.6303 41.2459 39.4935 41.1306 39.3782C41.0153 39.2629 40.8785 39.1714 40.7278 39.109C40.5772 39.0466 40.4158 39.0145 40.2527 39.0145Z" fill="white"/>
</svg>
