<svg width="80" height="80" viewBox="0 0 80 80" fill="none" xmlns="http://www.w3.org/2000/svg">
<path d="M45.2768 70.3554H34.5312V8.58898C34.5312 7.15979 35.099 5.78915 36.1096 4.77855C37.1202 3.76796 38.4908 3.2002 39.92 3.2002C41.3492 3.2002 42.7199 3.76796 43.7305 4.77855C44.7411 5.78915 45.3089 7.15979 45.3089 8.58898L45.2768 70.3554ZM36.9889 67.8722H42.7873V8.58898C42.7873 7.82007 42.4818 7.08265 41.9381 6.53895C41.3944 5.99524 40.657 5.6898 39.888 5.6898C39.1191 5.6898 38.3817 5.99524 37.838 6.53895C37.2943 7.08265 36.9889 7.82007 36.9889 8.58898V67.8722Z" fill="white"/>
<path d="M54.9465 75.7441H52.4505V74.6433C52.4514 74.08 52.341 73.522 52.1258 73.0014C51.9106 72.4807 51.5948 72.0077 51.1964 71.6093C50.7981 71.211 50.3251 70.8952 49.8045 70.68C49.2838 70.4648 48.7258 70.3544 48.1625 70.3553H31.5929C31.0301 70.3553 30.4728 70.4663 29.9529 70.6818C29.433 70.8974 28.9608 71.2133 28.5631 71.6116C28.1654 72.0099 27.8502 72.4826 27.6354 73.0029C27.4206 73.5231 27.3105 74.0805 27.3113 74.6433V75.7441H24.8281V74.6433C24.8273 73.7544 25.0016 72.874 25.3412 72.0525C25.6808 71.2311 26.179 70.4846 26.8072 69.8557C27.4355 69.2269 28.1815 68.728 29.0027 68.3876C29.8238 68.0473 30.704 67.8721 31.5929 67.8721H48.1753C49.9712 67.8721 51.6934 68.5855 52.9633 69.8554C54.2331 71.1252 54.9465 72.8475 54.9465 74.6433V75.7441Z" fill="white"/>
<path d="M36.9875 38.0739H9.24988L1.92188 30.7523L9.24988 23.4307H36.9875V38.0739ZM10.2803 35.5907H34.5299V25.9139H10.2803L5.44187 30.7523L10.2803 35.5907Z" fill="white"/>
<path d="M70.5227 50.234H42.7852V35.5908H70.5227L77.8507 42.9124L70.5227 50.234ZM45.2747 47.7508H69.4923L74.3307 42.9124L69.4923 38.074H45.2747V47.7508Z" fill="white"/>
<path d="M70.5227 25.9137H42.7852V11.2705H70.5227L77.8507 18.5921L70.5227 25.9137ZM45.2747 23.4305H69.4923L74.3307 18.5921L69.4923 13.7537H45.2747V23.4305Z" fill="white"/>
<path d="M53.2982 17.3506H50.8086V19.8402H53.2982V17.3506Z" fill="white"/>
<path d="M58.267 17.3506H55.7773V19.8402H58.267V17.3506Z" fill="white"/>
<path d="M63.2435 17.3506H60.7539V19.8402H63.2435V17.3506Z" fill="white"/>
</svg>
